RobotoExtremoD-opszmax.ufo
<glyph name="exclam" format="2">
  <advance width="558"/>
  <unicode hex="0021"/>
  <outline>
    <contour>
      <point x="175" y="85" type="qcurve" smooth="yes"/>
      <point x="175" y="41"/>
      <point x="229" y="-21"/>
      <point x="279" y="-21" type="qcurve" smooth="yes"/>
      <point x="330" y="-21"/>
      <point x="384" y="41"/>
      <point x="384" y="85" type="qcurve" smooth="yes"/>
      <point x="384" y="128"/>
      <point x="329" y="191"/>
      <point x="278" y="191" type="qcurve" smooth="yes"/>
      <point x="228" y="191"/>
      <point x="175" y="128"/>
    </contour>
    <contour>
      <point x="213" y="409" type="line"/>
      <point x="345" y="409" type="line"/>
      <point x="355" y="1456" type="line"/>
      <point x="204" y="1456" type="line"/>
    </contour>
  </outline>
</glyph>
<glyph name="quotedbl" format="2">
  <advance width="681"/>
  <unicode hex="0022"/>
  <outline>
    <contour>
      <point x="107" y="1078" type="line"/>
      <point x="239" y="1078" type="line"/>
      <point x="250" y="1345" type="line"/>
      <point x="250" y="1456" type="line"/>
      <point x="96" y="1456" type="line"/>
      <point x="96" y="1345" type="line"/>
    </contour>
    <contour>
      <point x="442" y="1078" type="line"/>
      <point x="575" y="1078" type="line"/>
      <point x="585" y="1345" type="line"/>
      <point x="585" y="1456" type="line"/>
      <point x="432" y="1456" type="line"/>
      <point x="432" y="1345" type="line"/>
    </contour>
  </outline>
</glyph>
<glyph name="numbersign" format="2">
  <advance width="1435"/>
  <unicode hex="0023"/>
  <outline>
    <contour>
      <point x="210" y="-20" type="line"/>
      <point x="340" y="-20" type="line"/>
      <point x="780" y="1476" type="line"/>
      <point x="650" y="1476" type="line"/>
    </contour>
    <contour>
      <point x="654" y="-20" type="line"/>
      <point x="785" y="-20" type="line"/>
      <point x="1224" y="1476" type="line"/>
      <point x="1095" y="1476" type="line"/>
    </contour>
    <contour>
      <point x="72" y="426" type="line"/>
      <point x="1290" y="426" type="line"/>
      <point x="1290" y="536" type="line"/>
      <point x="72" y="536" type="line"/>
    </contour>
    <contour>
      <point x="145" y="918" type="line"/>
      <point x="1361" y="918" type="line"/>
      <point x="1361" y="1028" type="line"/>
      <point x="145" y="1028" type="line"/>
    </contour>
  </outline>
</glyph>
<glyph name="dollar" format="2">
  <advance width="989"/>
  <unicode hex="0024"/>
  <outline>
    <contour>
      <point x="55" y="414" type="line" smooth="yes"/>
      <point x="55" y="209"/>
      <point x="301" y="-2"/>
      <point x="503" y="-2" type="qcurve" smooth="yes"/>
      <point x="703" y="-2"/>
      <point x="941" y="203"/>
      <point x="941" y="385" type="qcurve" smooth="yes"/>
      <point x="941" y="547"/>
      <point x="768" y="745"/>
      <point x="559" y="806" type="qcurve" smooth="yes"/>
      <point x="352" y="867"/>
      <point x="234" y="993"/>
      <point x="234" y="1094" type="qcurve" smooth="yes"/>
      <point x="234" y="1210"/>
      <point x="360" y="1336"/>
      <point x="492" y="1336" type="qcurve" smooth="yes"/>
      <point x="624" y="1336"/>
      <point x="762" y="1177"/>
      <point x="762" y="1043" type="qcurve" smooth="yes"/>
      <point x="762" y="1030" type="line"/>
      <point x="912" y="1030" type="line"/>
      <point x="912" y="1049" type="line" smooth="yes"/>
      <point x="912" y="1232"/>
      <point x="684" y="1458"/>
      <point x="491" y="1458" type="qcurve" smooth="yes"/>
      <point x="301" y="1458"/>
      <point x="80" y="1258"/>
      <point x="80" y="1087" type="qcurve" smooth="yes"/>
      <point x="80" y="927"/>
      <point x="268" y="738"/>
      <point x="482" y="675" type="qcurve" smooth="yes"/>
      <point x="685" y="614"/>
      <point x="788" y="479"/>
      <point x="788" y="375" type="qcurve" smooth="yes"/>
      <point x="788" y="259"/>
      <point x="641" y="119"/>
      <point x="502" y="119" type="qcurve" smooth="yes"/>
      <point x="363" y="119"/>
      <point x="205" y="267"/>
      <point x="205" y="420" type="qcurve" smooth="yes"/>
      <point x="205" y="434" type="line"/>
      <point x="55" y="434" type="line"/>
    </contour>
    <contour>
      <point x="434" y="-150" type="line"/>
      <point x="566" y="-150" type="line"/>
      <point x="566" y="45" type="line"/>
      <point x="561" y="55" type="line"/>
      <point x="561" y="728" type="line"/>
      <point x="434" y="728" type="line"/>
    </contour>
    <contour>
      <point x="436" y="728" type="line"/>
      <point x="562" y="728" type="line"/>
      <point x="562" y="1606" type="line"/>
      <point x="431" y="1606" type="line"/>
      <point x="431" y="1402" type="line"/>
      <point x="436" y="1392" type="line"/>
    </contour>
  </outline>
</glyph>
<glyph name="percent" format="2">
  <advance width="1540"/>
  <unicode hex="0025"/>
  <outline>
    <contour>
      <point x="64" y="996" type="line" smooth="yes"/>
      <point x="64" y="840"/>
      <point x="198" y="660"/>
      <point x="324" y="660" type="qcurve" smooth="yes"/>
      <point x="452" y="660"/>
      <point x="588" y="840"/>
      <point x="588" y="996" type="qcurve" smooth="yes"/>
      <point x="588" y="1144" type="line" smooth="yes"/>
      <point x="588" y="1297"/>
      <point x="452" y="1476"/>
      <point x="324" y="1476" type="qcurve" smooth="yes"/>
      <point x="198" y="1476"/>
      <point x="64" y="1297"/>
      <point x="64" y="1144" type="qcurve" smooth="yes"/>
    </contour>
    <contour>
      <point x="183" y="984" type="qcurve" smooth="yes"/>
      <point x="183" y="1151" type="line" smooth="yes"/>
      <point x="183" y="1255"/>
      <point x="249" y="1382"/>
      <point x="324" y="1382" type="qcurve" smooth="yes"/>
      <point x="402" y="1382"/>
      <point x="469" y="1255"/>
      <point x="469" y="1151" type="qcurve" smooth="yes"/>
      <point x="469" y="984" type="line" smooth="yes"/>
      <point x="469" y="880"/>
      <point x="402" y="755"/>
      <point x="324" y="755" type="qcurve" smooth="yes"/>
      <point x="249" y="755"/>
      <point x="183" y="880"/>
    </contour>
    <contour>
      <point x="286" y="52" type="line"/>
      <point x="389" y="-8" type="line"/>
      <point x="1257" y="1406" type="line"/>
      <point x="1151" y="1464" type="line"/>
    </contour>
    <contour>
      <point x="952" y="314" type="line" smooth="yes"/>
      <point x="952" y="153"/>
      <point x="1085" y="-21"/>
      <point x="1213" y="-21" type="qcurve" smooth="yes"/>
      <point x="1344" y="-21"/>
      <point x="1477" y="162"/>
      <point x="1477" y="318" type="qcurve" smooth="yes"/>
      <point x="1477" y="463" type="line" smooth="yes"/>
      <point x="1477" y="614"/>
      <point x="1344" y="795"/>
      <point x="1213" y="795" type="qcurve" smooth="yes"/>
      <point x="1085" y="795"/>
      <point x="952" y="614"/>
      <point x="952" y="463" type="qcurve" smooth="yes"/>
    </contour>
    <contour>
      <point x="1072" y="303" type="qcurve" smooth="yes"/>
      <point x="1072" y="470" type="line" smooth="yes"/>
      <point x="1072" y="574"/>
      <point x="1136" y="700"/>
      <point x="1213" y="700" type="qcurve" smooth="yes"/>
      <point x="1292" y="700"/>
      <point x="1357" y="572"/>
      <point x="1357" y="467" type="qcurve" smooth="yes"/>
      <point x="1357" y="303" type="line" smooth="yes"/>
      <point x="1357" y="199"/>
      <point x="1292" y="74"/>
      <point x="1213" y="74" type="qcurve" smooth="yes"/>
      <point x="1136" y="74"/>
      <point x="1072" y="192"/>
    </contour>
  </outline>
</glyph>
<glyph name="ampersand" format="2">
  <advance width="1145"/>
  <unicode hex="0026"/>
  <outline>
    <contour>
      <point x="75" y="379" type="qcurve" smooth="yes"/>
      <point x="75" y="208"/>
      <point x="287" y="-20"/>
      <point x="483" y="-20" type="qcurve" smooth="yes"/>
      <point x="728" y="-20"/>
      <point x="1071" y="389"/>
      <point x="1071" y="683" type="qcurve"/>
      <point x="923" y="683" type="line"/>
      <point x="919" y="414"/>
      <point x="656" y="102"/>
      <point x="484" y="102" type="qcurve" smooth="yes"/>
      <point x="368" y="102"/>
      <point x="228" y="263"/>
      <point x="228" y="387" type="qcurve" smooth="yes"/>
      <point x="228" y="489"/>
      <point x="339" y="653"/>
      <point x="479" y="743" type="qcurve" smooth="yes"/>
      <point x="616" y="834" type="line" smooth="yes"/>
      <point x="711" y="895"/>
      <point x="821" y="1062"/>
      <point x="821" y="1170" type="qcurve" smooth="yes"/>
      <point x="821" y="1315"/>
      <point x="659" y="1486"/>
      <point x="517" y="1486" type="qcurve" smooth="yes"/>
      <point x="374" y="1486"/>
      <point x="203" y="1304"/>
      <point x="203" y="1151" type="qcurve" smooth="yes"/>
      <point x="203" y="1058"/>
      <point x="272" y="900"/>
      <point x="381" y="756" type="qcurve" smooth="yes"/>
      <point x="951" y="0" type="line"/>
      <point x="1127" y="0" type="line"/>
      <point x="513" y="814" type="line" smooth="yes"/>
      <point x="420" y="938"/>
      <point x="353" y="1078"/>
      <point x="353" y="1153" type="qcurve" smooth="yes"/>
      <point x="353" y="1249"/>
      <point x="442" y="1374"/>
      <point x="516" y="1374" type="qcurve" smooth="yes"/>
      <point x="592" y="1374"/>
      <point x="671" y="1257"/>
      <point x="671" y="1170" type="qcurve" smooth="yes"/>
      <point x="671" y="1087"/>
      <point x="597" y="962"/>
      <point x="522" y="914" type="qcurve" smooth="yes"/>
      <point x="383" y="823" type="line" smooth="yes"/>
      <point x="231" y="725"/>
      <point x="75" y="525"/>
    </contour>
  </outline>
</glyph>
<glyph name="quotesingle" format="2">
  <advance width="356"/>
  <unicode hex="0027"/>
  <outline>
    <contour>
      <point x="112" y="1078" type="line"/>
      <point x="245" y="1078" type="line"/>
      <point x="259" y="1345" type="line"/>
      <point x="259" y="1456" type="line"/>
      <point x="96" y="1456" type="line"/>
      <point x="96" y="1345" type="line"/>
    </contour>
  </outline>
</glyph>
<glyph name="parenleft" format="2">
  <advance width="646"/>
  <unicode hex="0028"/>
  <outline>
    <contour>
      <point x="590" y="-436" type="qcurve"/>
      <point x="590" y="-326" type="line"/>
      <point x="455" y="-258"/>
      <point x="276" y="140"/>
      <point x="276" y="508" type="qcurve" smooth="yes"/>
      <point x="276" y="532" type="line" smooth="yes"/>
      <point x="276" y="900"/>
      <point x="455" y="1298"/>
      <point x="590" y="1366" type="qcurve"/>
      <point x="590" y="1476" type="line"/>
      <point x="384" y="1400"/>
      <point x="118" y="922"/>
      <point x="118" y="525" type="qcurve" smooth="yes"/>
      <point x="118" y="515" type="line" smooth="yes"/>
      <point x="118" y="118"/>
      <point x="384" y="-360"/>
    </contour>
  </outline>
</glyph>
<glyph name="parenright" format="2">
  <advance width="646"/>
  <unicode hex="0029"/>
  <outline>
    <contour>
      <point x="54" y="-436" type="line"/>
      <point x="263" y="-360"/>
      <point x="528" y="118"/>
      <point x="528" y="515" type="qcurve" smooth="yes"/>
      <point x="528" y="525" type="line" smooth="yes"/>
      <point x="528" y="922"/>
      <point x="263" y="1400"/>
      <point x="54" y="1476" type="qcurve"/>
      <point x="54" y="1366" type="line"/>
      <point x="191" y="1298"/>
      <point x="369" y="900"/>
      <point x="369" y="532" type="qcurve" smooth="yes"/>
      <point x="369" y="508" type="line" smooth="yes"/>
      <point x="369" y="140"/>
      <point x="191" y="-258"/>
      <point x="54" y="-326" type="qcurve"/>
    </contour>
  </outline>
</glyph>
<glyph name="asterisk" format="2">
  <advance width="1034"/>
  <unicode hex="002A"/>
  <outline>
    <contour>
      <point x="51" y="1091" type="line"/>
      <point x="423" y="989" type="line"/>
      <point x="187" y="672" type="line"/>
      <point x="297" y="604" type="line"/>
      <point x="517" y="932" type="line"/>
      <point x="737" y="604" type="line"/>
      <point x="847" y="672" type="line"/>
      <point x="611" y="989" type="line"/>
      <point x="983" y="1091" type="line"/>
      <point x="941" y="1220" type="line"/>
      <point x="574" y="1081" type="line"/>
      <point x="586" y="1476" type="line"/>
      <point x="448" y="1476" type="line"/>
      <point x="461" y="1081" type="line"/>
      <point x="92" y="1220" type="line"/>
    </contour>
  </outline>
</glyph>
<glyph name="plus" format="2">
  <advance width="1167"/>
  <unicode hex="002B"/>
  <outline>
    <contour>
      <point x="144" y="613" type="line"/>
      <point x="1022" y="613" type="line"/>
      <point x="1022" y="740" type="line"/>
      <point x="144" y="740" type="line"/>
    </contour>
    <contour>
      <point x="510" y="206" type="line"/>
      <point x="657" y="206" type="line"/>
      <point x="657" y="1146" type="line"/>
      <point x="510" y="1146" type="line"/>
    </contour>
  </outline>
</glyph>
<glyph name="comma" format="2">
  <advance width="533"/>
  <unicode hex="002C"/>
  <outline>
    <contour>
      <point x="134" y="-145" type="qcurve"/>
      <point x="249" y="-184" type="line"/>
      <point x="297" y="-140"/>
      <point x="355" y="-20"/>
      <point x="355" y="56" type="qcurve" smooth="yes"/>
      <point x="355" y="190" type="line"/>
      <point x="207" y="190" type="line"/>
      <point x="207" y="56" type="line" smooth="yes"/>
      <point x="207" y="-6"/>
      <point x="168" y="-99"/>
    </contour>
  </outline>
</glyph>
<glyph name="hyphen" format="2">
  <advance width="603"/>
  <unicode hex="002D"/>
  <outline>
    <contour>
      <point x="44" y="578" type="line"/>
      <point x="560" y="578" type="line"/>
      <point x="560" y="699" type="line"/>
      <point x="44" y="699" type="line"/>
    </contour>
  </outline>
</glyph>
<glyph name="period" format="2">
  <advance width="510"/>
  <unicode hex="002E"/>
  <outline>
    <contour>
      <point x="151" y="87" type="qcurve" smooth="yes"/>
      <point x="151" y="43"/>
      <point x="205" y="-18"/>
      <point x="255" y="-18" type="qcurve" smooth="yes"/>
      <point x="305" y="-18"/>
      <point x="359" y="42"/>
      <point x="359" y="86" type="qcurve" smooth="yes"/>
      <point x="359" y="131"/>
      <point x="306" y="191"/>
      <point x="255" y="191" type="qcurve" smooth="yes"/>
      <point x="205" y="191"/>
      <point x="151" y="131"/>
    </contour>
  </outline>
</glyph>
<glyph name="zero" format="2">
  <advance width="936"/>
  <unicode hex="0030"/>
  <outline>
    <contour>
      <point x="50" y="466" type="line" smooth="yes"/>
      <point x="50" y="226"/>
      <point x="269" y="-20"/>
      <point x="468" y="-20" type="qcurve" smooth="yes"/>
      <point x="663" y="-20"/>
      <point x="886" y="225"/>
      <point x="886" y="465" type="qcurve" smooth="yes"/>
      <point x="886" y="993" type="line" smooth="yes"/>
      <point x="886" y="1231"/>
      <point x="666" y="1476"/>
      <point x="468" y="1476" type="qcurve" smooth="yes"/>
      <point x="270" y="1476"/>
      <point x="50" y="1230"/>
      <point x="50" y="993" type="qcurve" smooth="yes"/>
    </contour>
    <contour>
      <point x="210" y="444" type="qcurve" smooth="yes"/>
      <point x="210" y="1013" type="line" smooth="yes"/>
      <point x="210" y="1178"/>
      <point x="339" y="1351"/>
      <point x="468" y="1351" type="qcurve" smooth="yes"/>
      <point x="598" y="1351"/>
      <point x="725" y="1178"/>
      <point x="725" y="1013" type="qcurve" smooth="yes"/>
      <point x="725" y="444" type="line" smooth="yes"/>
      <point x="725" y="278"/>
      <point x="598" y="104"/>
      <point x="468" y="104" type="qcurve" smooth="yes"/>
      <point x="338" y="104"/>
      <point x="210" y="278"/>
    </contour>
  </outline>
</glyph>
<glyph name="one" format="2">
  <advance width="936"/>
  <unicode hex="0031"/>
  <outline>
    <contour>
      <point x="461" y="0" type="line"/>
      <point x="621" y="0" type="line"/>
      <point x="621" y="1473" type="line"/>
      <point x="518" y="1473" type="line"/>
      <point x="93" y="1324" type="line"/>
      <point x="93" y="1185" type="line"/>
      <point x="461" y="1313" type="line"/>
    </contour>
  </outline>
</glyph>
<glyph name="two" format="2">
  <advance width="936"/>
  <unicode hex="0032"/>
  <outline>
    <contour>
      <point x="43" y="0" type="line"/>
      <point x="886" y="0" type="line"/>
      <point x="886" y="122" type="line"/>
      <point x="244" y="122" type="line"/>
      <point x="638" y="631" type="line" smooth="yes"/>
      <point x="750" y="774"/>
      <point x="850" y="982"/>
      <point x="850" y="1108" type="qcurve" smooth="yes"/>
      <point x="849" y="1274"/>
      <point x="640" y="1476"/>
      <point x="458" y="1476" type="qcurve" smooth="yes"/>
      <point x="271" y="1476"/>
      <point x="45" y="1261"/>
      <point x="45" y="1059" type="qcurve" smooth="yes"/>
      <point x="45" y="1037" type="line"/>
      <point x="204" y="1037" type="line"/>
      <point x="204" y="1060" type="line" smooth="yes"/>
      <point x="204" y="1224"/>
      <point x="343" y="1351"/>
      <point x="455" y="1351" type="qcurve" smooth="yes"/>
      <point x="561" y="1351"/>
      <point x="690" y="1229"/>
      <point x="690" y="1101" type="qcurve" smooth="yes"/>
      <point x="690" y="1001"/>
      <point x="586" y="802"/>
      <point x="511" y="699" type="qcurve" smooth="yes"/>
      <point x="43" y="107" type="line"/>
    </contour>
  </outline>
</glyph>
<glyph name="three" format="2">
  <advance width="936"/>
  <unicode hex="0033"/>
  <outline>
    <contour>
      <point x="47" y="383" type="line" smooth="yes"/>
      <point x="47" y="196"/>
      <point x="269" y="-20"/>
      <point x="468" y="-20" type="qcurve" smooth="yes"/>
      <point x="670" y="-20"/>
      <point x="889" y="205"/>
      <point x="889" y="393" type="qcurve" smooth="yes"/>
      <point x="889" y="556"/>
      <point x="735" y="739"/>
      <point x="625" y="763" type="qcurve"/>
      <point x="625" y="767" type="line"/>
      <point x="728" y="802"/>
      <point x="840" y="967"/>
      <point x="840" y="1110" type="qcurve" smooth="yes"/>
      <point x="840" y="1287"/>
      <point x="636" y="1476"/>
      <point x="468" y="1476" type="qcurve" smooth="yes"/>
      <point x="297" y="1476"/>
      <point x="83" y="1280"/>
      <point x="83" y="1094" type="qcurve" smooth="yes"/>
      <point x="83" y="1068" type="line"/>
      <point x="238" y="1068" type="line"/>
      <point x="238" y="1092" type="line" smooth="yes"/>
      <point x="238" y="1238"/>
      <point x="366" y="1352"/>
      <point x="466" y="1352" type="qcurve" smooth="yes"/>
      <point x="571" y="1352"/>
      <point x="682" y="1224"/>
      <point x="682" y="1098" type="qcurve" smooth="yes"/>
      <point x="682" y="941"/>
      <point x="535" y="813"/>
      <point x="421" y="813" type="qcurve" smooth="yes"/>
      <point x="299" y="813" type="line"/>
      <point x="299" y="701" type="line"/>
      <point x="429" y="701" type="line" smooth="yes"/>
      <point x="560" y="701"/>
      <point x="727" y="556"/>
      <point x="727" y="396" type="qcurve" smooth="yes"/>
      <point x="727" y="247"/>
      <point x="594" y="104"/>
      <point x="466" y="104" type="qcurve" smooth="yes"/>
      <point x="346" y="104"/>
      <point x="203" y="245"/>
      <point x="202" y="385" type="qcurve" smooth="yes"/>
      <point x="202" y="413" type="line"/>
      <point x="47" y="413" type="line"/>
    </contour>
  </outline>
</glyph>
<glyph name="four" format="2">
  <advance width="936"/>
  <unicode hex="0034"/>
  <outline>
    <contour>
      <point x="580" y="0" type="line"/>
      <point x="734" y="0" type="line"/>
      <point x="734" y="1456" type="line"/>
      <point x="594" y="1456" type="line"/>
      <point x="24" y="468" type="line"/>
      <point x="24" y="336" type="line"/>
      <point x="922" y="336" type="line"/>
      <point x="922" y="467" type="line"/>
      <point x="658" y="467" type="line"/>
      <point x="633" y="462" type="line"/>
      <point x="176" y="462" type="line"/>
      <point x="578" y="1183" type="line"/>
      <point x="586" y="1183" type="line"/>
      <point x="586" y="400" type="line"/>
      <point x="580" y="386" type="line"/>
    </contour>
  </outline>
</glyph>
<glyph name="five" format="2">
  <advance width="936"/>
  <unicode hex="0035"/>
  <outline>
    <contour>
      <point x="49" y="379" type="line" smooth="yes"/>
      <point x="49" y="201"/>
      <point x="273" y="-20"/>
      <point x="464" y="-20" type="qcurve" smooth="yes"/>
      <point x="661" y="-20"/>
      <point x="890" y="222"/>
      <point x="890" y="472" type="qcurve" smooth="yes"/>
      <point x="890" y="716"/>
      <point x="678" y="922"/>
      <point x="521" y="922" type="qcurve" smooth="yes"/>
      <point x="428" y="922"/>
      <point x="294" y="871"/>
      <point x="250" y="828" type="qcurve"/>
      <point x="301" y="1331" type="line"/>
      <point x="826" y="1332" type="line"/>
      <point x="826" y="1456" type="line"/>
      <point x="174" y="1456" type="line"/>
      <point x="100" y="714" type="line"/>
      <point x="232" y="683" type="line"/>
      <point x="267" y="737"/>
      <point x="394" y="806"/>
      <point x="487" y="806" type="qcurve" smooth="yes"/>
      <point x="586" y="806"/>
      <point x="730" y="672"/>
      <point x="730" y="465" type="qcurve" smooth="yes"/>
      <point x="730" y="266"/>
      <point x="590" y="104"/>
      <point x="464" y="104" type="qcurve" smooth="yes"/>
      <point x="345" y="104"/>
      <point x="206" y="243"/>
      <point x="206" y="381" type="qcurve" smooth="yes"/>
      <point x="206" y="408" type="line"/>
      <point x="49" y="408" type="line"/>
    </contour>
  </outline>
</glyph>
<glyph name="six" format="2">
  <advance width="936"/>
  <unicode hex="0036"/>
  <outline>
    <contour>
      <point x="41" y="614" type="line" smooth="yes"/>
      <point x="41" y="276"/>
      <point x="277" y="-20"/>
      <point x="472" y="-20" type="qcurve" smooth="yes"/>
      <point x="676" y="-20"/>
      <point x="913" y="241"/>
      <point x="913" y="463" type="qcurve" smooth="yes"/>
      <point x="913" y="671"/>
      <point x="710" y="907"/>
      <point x="522" y="907" type="qcurve" smooth="yes"/>
      <point x="356" y="907"/>
      <point x="133" y="672"/>
      <point x="133" y="464" type="qcurve"/>
      <point x="199" y="464" type="line"/>
      <point x="199" y="622"/>
      <point x="368" y="800"/>
      <point x="486" y="800" type="qcurve" smooth="yes"/>
      <point x="611" y="800"/>
      <point x="753" y="636"/>
      <point x="753" y="463" type="qcurve" smooth="yes"/>
      <point x="753" y="274"/>
      <point x="604" y="103"/>
      <point x="477" y="103" type="qcurve" smooth="yes"/>
      <point x="355" y="103"/>
      <point x="198" y="329"/>
      <point x="198" y="605" type="qcurve" smooth="yes"/>
      <point x="198" y="625" type="line" smooth="yes"/>
      <point x="198" y="997"/>
      <point x="485" y="1348"/>
      <point x="733" y="1348" type="qcurve" smooth="yes"/>
      <point x="755" y="1348" type="line"/>
      <point x="755" y="1476" type="line"/>
      <point x="731" y="1476" type="line" smooth="yes"/>
      <point x="398" y="1476"/>
      <point x="41" y="1038"/>
      <point x="41" y="644" type="qcurve" smooth="yes"/>
    </contour>
  </outline>
</glyph>
<glyph name="seven" format="2">
  <advance width="936"/>
  <unicode hex="0037"/>
  <outline>
    <contour>
      <point x="226" y="0" type="line"/>
      <point x="394" y="0" type="line"/>
      <point x="888" y="1333" type="line"/>
      <point x="888" y="1456" type="line"/>
      <point x="26" y="1456" type="line"/>
      <point x="26" y="1321" type="line"/>
      <point x="720" y="1321" type="line"/>
    </contour>
  </outline>
</glyph>
<glyph name="eight" format="2">
  <advance width="936"/>
  <unicode hex="0038"/>
  <outline>
    <contour>
      <point x="51" y="384" type="qcurve" smooth="yes"/>
      <point x="51" y="190"/>
      <point x="287" y="-20"/>
      <point x="470" y="-20" type="qcurve" smooth="yes"/>
      <point x="650" y="-20"/>
      <point x="887" y="190"/>
      <point x="887" y="384" type="qcurve" smooth="yes"/>
      <point x="887" y="534"/>
      <point x="756" y="719"/>
      <point x="653" y="748" type="qcurve"/>
      <point x="653" y="752" type="line"/>
      <point x="737" y="786"/>
      <point x="844" y="957"/>
      <point x="844" y="1092" type="qcurve" smooth="yes"/>
      <point x="844" y="1268"/>
      <point x="642" y="1476"/>
      <point x="470" y="1476" type="qcurve" smooth="yes"/>
      <point x="296" y="1476"/>
      <point x="93" y="1277"/>
      <point x="93" y="1092" type="qcurve" smooth="yes"/>
      <point x="93" y="964"/>
      <point x="194" y="787"/>
      <point x="285" y="749" type="qcurve"/>
      <point x="285" y="745" type="line"/>
      <point x="183" y="716"/>
      <point x="51" y="531"/>
    </contour>
    <contour>
      <point x="210" y="391" type="qcurve" smooth="yes"/>
      <point x="210" y="528"/>
      <point x="350" y="690"/>
      <point x="469" y="690" type="qcurve" smooth="yes"/>
      <point x="587" y="690"/>
      <point x="726" y="528"/>
      <point x="726" y="390" type="qcurve" smooth="yes"/>
      <point x="726" y="251"/>
      <point x="587" y="101"/>
      <point x="469" y="101" type="qcurve" smooth="yes"/>
      <point x="350" y="101"/>
      <point x="210" y="250"/>
    </contour>
    <contour>
      <point x="248" y="1083" type="qcurve" smooth="yes"/>
      <point x="248" y="1219"/>
      <point x="361" y="1354"/>
      <point x="469" y="1354" type="qcurve" smooth="yes"/>
      <point x="576" y="1354"/>
      <point x="689" y="1211"/>
      <point x="689" y="1083" type="qcurve" smooth="yes"/>
      <point x="689" y="956"/>
      <point x="570" y="800"/>
      <point x="469" y="800" type="qcurve" smooth="yes"/>
      <point x="368" y="800"/>
      <point x="248" y="956"/>
    </contour>
  </outline>
</glyph>
<glyph name="nine" format="2">
  <advance width="936"/>
  <unicode hex="0039"/>
  <outline>
    <contour>
      <point x="26" y="992" type="qcurve" smooth="yes"/>
      <point x="26" y="794"/>
      <point x="234" y="548"/>
      <point x="415" y="548" type="qcurve" smooth="yes"/>
      <point x="584" y="548"/>
      <point x="798" y="793"/>
      <point x="798" y="1000" type="qcurve"/>
      <point x="731" y="1000" type="line"/>
      <point x="731" y="846"/>
      <point x="568" y="654"/>
      <point x="449" y="654" type="qcurve" smooth="yes"/>
      <point x="326" y="654"/>
      <point x="185" y="824"/>
      <point x="185" y="993" type="qcurve" smooth="yes"/>
      <point x="185" y="1178"/>
      <point x="326" y="1353"/>
      <point x="451" y="1353" type="qcurve" smooth="yes"/>
      <point x="578" y="1353"/>
      <point x="734" y="1141"/>
      <point x="734" y="859" type="qcurve" smooth="yes"/>
      <point x="734" y="814" type="line" smooth="yes"/>
      <point x="734" y="458"/>
      <point x="444" y="107"/>
      <point x="199" y="107" type="qcurve" smooth="yes"/>
      <point x="176" y="107" type="line"/>
      <point x="176" y="-20" type="line"/>
      <point x="200" y="-20" type="line" smooth="yes"/>
      <point x="542" y="-20"/>
      <point x="894" y="425"/>
      <point x="894" y="812" type="qcurve" smooth="yes"/>
      <point x="894" y="842" type="line" smooth="yes"/>
      <point x="894" y="1182"/>
      <point x="642" y="1476"/>
      <point x="452" y="1476" type="qcurve" smooth="yes"/>
      <point x="262" y="1476"/>
      <point x="26" y="1212"/>
    </contour>
  </outline>
</glyph>
<glyph name="colon" format="2">
  <advance width="528"/>
  <unicode hex="003A"/>
  <outline>
    <contour>
      <point x="165" y="83" type="qcurve" smooth="yes"/>
      <point x="165" y="40"/>
      <point x="215" y="-18"/>
      <point x="264" y="-18" type="qcurve" smooth="yes"/>
      <point x="313" y="-18"/>
      <point x="363" y="41"/>
      <point x="363" y="83" type="qcurve" smooth="yes"/>
      <point x="363" y="126"/>
      <point x="312" y="185"/>
      <point x="264" y="185" type="qcurve" smooth="yes"/>
      <point x="215" y="185"/>
      <point x="165" y="126"/>
    </contour>
    <contour>
      <point x="165" y="841" type="qcurve" smooth="yes"/>
      <point x="165" y="798"/>
      <point x="215" y="739"/>
      <point x="264" y="739" type="qcurve" smooth="yes"/>
      <point x="313" y="739"/>
      <point x="363" y="798"/>
      <point x="363" y="841" type="qcurve" smooth="yes"/>
      <point x="363" y="883"/>
      <point x="312" y="942"/>
      <point x="264" y="942" type="qcurve" smooth="yes"/>
      <point x="215" y="942"/>
      <point x="165" y="883"/>
    </contour>
  </outline>
</glyph>
<glyph name="semicolon" format="2">
  <advance width="527"/>
  <unicode hex="003B"/>
  <outline>
    <contour>
      <point x="132" y="-145" type="qcurve"/>
      <point x="244" y="-184" type="line"/>
      <point x="293" y="-140"/>
      <point x="348" y="-21"/>
      <point x="348" y="55" type="qcurve" smooth="yes"/>
      <point x="348" y="185" type="line"/>
      <point x="205" y="185" type="line"/>
      <point x="205" y="55" type="line" smooth="yes"/>
      <point x="205" y="-6"/>
      <point x="165" y="-100"/>
    </contour>
    <contour>
      <point x="165" y="841" type="qcurve" smooth="yes"/>
      <point x="165" y="798"/>
      <point x="215" y="739"/>
      <point x="264" y="739" type="qcurve" smooth="yes"/>
      <point x="312" y="739"/>
      <point x="363" y="798"/>
      <point x="363" y="841" type="qcurve" smooth="yes"/>
      <point x="363" y="883"/>
      <point x="312" y="942"/>
      <point x="264" y="942" type="qcurve" smooth="yes"/>
      <point x="215" y="942"/>
      <point x="165" y="883"/>
    </contour>
  </outline>
</glyph>
<glyph name="less" format="2">
  <advance width="1120"/>
  <unicode hex="003C"/>
  <outline>
    <contour>
      <point x="959" y="224" type="line"/>
      <point x="959" y="359" type="line"/>
      <point x="304" y="674" type="line"/>
      <point x="959" y="990" type="line"/>
      <point x="959" y="1125" type="line"/>
      <point x="153" y="735" type="line"/>
      <point x="153" y="613" type="line"/>
    </contour>
  </outline>
</glyph>
<glyph name="equal" format="2">
  <advance width="1136"/>
  <unicode hex="003D"/>
  <outline>
    <contour>
      <point x="184" y="408" type="line"/>
      <point x="954" y="408" type="line"/>
      <point x="954" y="531" type="line"/>
      <point x="184" y="531" type="line"/>
    </contour>
    <contour>
      <point x="184" y="821" type="line"/>
      <point x="954" y="821" type="line"/>
      <point x="954" y="944" type="line"/>
      <point x="184" y="944" type="line"/>
    </contour>
  </outline>
</glyph>
<glyph name="greater" format="2">
  <advance width="1120"/>
  <unicode hex="003E"/>
  <outline>
    <contour>
      <point x="161" y="224" type="line"/>
      <point x="967" y="614" type="line"/>
      <point x="967" y="736" type="line"/>
      <point x="161" y="1125" type="line"/>
      <point x="161" y="990" type="line"/>
      <point x="816" y="675" type="line"/>
      <point x="161" y="359" type="line"/>
    </contour>
  </outline>
</glyph>
<glyph name="question" format="2">
  <advance width="892"/>
  <unicode hex="003F"/>
  <outline>
    <contour>
      <point x="291" y="85" type="qcurve" smooth="yes"/>
      <point x="291" y="41"/>
      <point x="346" y="-21"/>
      <point x="397" y="-21" type="qcurve" smooth="yes"/>
      <point x="448" y="-21"/>
      <point x="502" y="41"/>
      <point x="502" y="85" type="qcurve" smooth="yes"/>
      <point x="502" y="128"/>
      <point x="447" y="191"/>
      <point x="396" y="191" type="qcurve" smooth="yes"/>
      <point x="345" y="191"/>
      <point x="291" y="128"/>
    </contour>
    <contour>
      <point x="70" y="1073" type="line"/>
      <point x="218" y="1073" type="line"/>
      <point x="218" y="1096" type="line" smooth="yes"/>
      <point x="218" y="1220"/>
      <point x="327" y="1353"/>
      <point x="429" y="1353" type="qcurve" smooth="yes"/>
      <point x="530" y="1353"/>
      <point x="630" y="1229"/>
      <point x="630" y="1129" type="qcurve" smooth="yes"/>
      <point x="630" y="1024"/>
      <point x="566" y="895"/>
      <point x="486" y="811" type="qcurve" smooth="yes"/>
      <point x="398" y="721"/>
      <point x="316" y="555"/>
      <point x="316" y="443" type="qcurve" smooth="yes"/>
      <point x="316" y="425" type="line"/>
      <point x="473" y="425" type="line"/>
      <point x="473" y="441" type="line" smooth="yes"/>
      <point x="473" y="515"/>
      <point x="533" y="649"/>
      <point x="617" y="739" type="qcurve" smooth="yes"/>
      <point x="703" y="832"/>
      <point x="790" y="995"/>
      <point x="790" y="1139" type="qcurve" smooth="yes"/>
      <point x="790" y="1289"/>
      <point x="601" y="1476"/>
      <point x="432" y="1476" type="qcurve" smooth="yes"/>
      <point x="264" y="1476"/>
      <point x="70" y="1276"/>
      <point x="70" y="1105" type="qcurve" smooth="yes"/>
    </contour>
  </outline>
</glyph>
<glyph name="at" format="2">
  <advance width="1958"/>
  <unicode hex="0040"/>
  <outline>
    <contour>
      <point x="618" y="400" type="qcurve" smooth="yes"/>
      <point x="618" y="219"/>
      <point x="757" y="0"/>
      <point x="875" y="0" type="qcurve" smooth="yes"/>
      <point x="950" y="0"/>
      <point x="1075" y="102"/>
      <point x="1108" y="188" type="qcurve"/>
      <point x="1140" y="100"/>
      <point x="1289" y="0"/>
      <point x="1402" y="0" type="qcurve" smooth="yes"/>
      <point x="1594" y="0"/>
      <point x="1857" y="360"/>
      <point x="1857" y="650" type="qcurve" smooth="yes"/>
      <point x="1857" y="1000"/>
      <point x="1403" y="1486"/>
      <point x="1024" y="1486" type="qcurve" smooth="yes"/>
      <point x="640" y="1486"/>
      <point x="103" y="880"/>
      <point x="103" y="460" type="qcurve" smooth="yes"/>
      <point x="103" y="40"/>
      <point x="579" y="-446"/>
      <point x="921" y="-446" type="qcurve" smooth="yes"/>
      <point x="1055" y="-446"/>
      <point x="1238" y="-401"/>
      <point x="1305" y="-357" type="qcurve"/>
      <point x="1305" y="-238" type="line"/>
      <point x="1241" y="-274"/>
      <point x="1055" y="-327"/>
      <point x="921" y="-327" type="qcurve" smooth="yes"/>
      <point x="630" y="-327"/>
      <point x="248" y="79"/>
      <point x="248" y="455" type="qcurve" smooth="yes"/>
      <point x="248" y="836"/>
      <point x="691" y="1369"/>
      <point x="1024" y="1369" type="qcurve" smooth="yes"/>
      <point x="1356" y="1369"/>
      <point x="1722" y="937"/>
      <point x="1722" y="645" type="qcurve" smooth="yes"/>
      <point x="1722" y="402"/>
      <point x="1550" y="106"/>
      <point x="1415" y="106" type="qcurve" smooth="yes"/>
      <point x="1320" y="106"/>
      <point x="1209" y="211"/>
      <point x="1236" y="350" type="qcurve" smooth="yes"/>
      <point x="1352" y="946" type="line"/>
      <point x="1272" y="946" type="line"/>
      <point x="1241" y="981"/>
      <point x="1121" y="1052"/>
      <point x="1053" y="1052" type="qcurve" smooth="yes"/>
      <point x="873" y="1052"/>
      <point x="618" y="682"/>
    </contour>
    <contour>
      <point x="758" y="403" type="qcurve" smooth="yes"/>
      <point x="758" y="633"/>
      <point x="931" y="943"/>
      <point x="1063" y="943" type="qcurve" smooth="yes"/>
      <point x="1102" y="943"/>
      <point x="1177" y="911"/>
      <point x="1203" y="888" type="qcurve"/>
      <point x="1108" y="398" type="line" smooth="yes"/>
      <point x="1077" y="241"/>
      <point x="975" y="112"/>
      <point x="907" y="112" type="qcurve" smooth="yes"/>
      <point x="834" y="112"/>
      <point x="758" y="259"/>
    </contour>
  </outline>
</glyph>
<glyph name="A" format="2">
  <advance width="1101"/>
  <unicode hex="0041"/>
  <anchor x="549.0" y="1432.0" name="top"/>
  <outline>
    <contour>
      <point x="-13" y="0" type="line"/>
      <point x="143" y="0" type="line"/>
      <point x="504" y="1193" type="line" smooth="yes"/>
      <point x="516" y="1233"/>
      <point x="534" y="1290"/>
      <point x="544" y="1324" type="qcurve"/>
      <point x="547" y="1324" type="line"/>
      <point x="556" y="1290"/>
      <point x="574" y="1233"/>
      <point x="586" y="1193" type="qcurve" smooth="yes"/>
      <point x="954" y="0" type="line"/>
      <point x="1114" y="0" type="line"/>
      <point x="652" y="1455" type="line"/>
      <point x="452" y="1455" type="line"/>
    </contour>
    <contour>
      <point x="209" y="395" type="line"/>
      <point x="890" y="395" type="line"/>
      <point x="860" y="515" type="line"/>
      <point x="237" y="515" type="line"/>
    </contour>
  </outline>
</glyph>
<glyph name="B" format="2">
  <advance width="1060"/>
  <unicode hex="0042"/>
  <outline>
    <contour>
      <point x="129" y="0" type="line"/>
      <point x="599" y="0" type="line" smooth="yes"/>
      <point x="786" y="0"/>
      <point x="1005" y="208"/>
      <point x="1005" y="398" type="qcurve" smooth="yes"/>
      <point x="1005" y="550"/>
      <point x="877" y="736"/>
      <point x="775" y="763" type="qcurve"/>
      <point x="775" y="767" type="line"/>
      <point x="856" y="793"/>
      <point x="961" y="963"/>
      <point x="961" y="1091" type="qcurve" smooth="yes"/>
      <point x="961" y="1276"/>
      <point x="757" y="1456"/>
      <point x="569" y="1456" type="qcurve" smooth="yes"/>
      <point x="129" y="1456" type="line"/>
    </contour>
    <contour>
      <point x="286" y="119" type="line"/>
      <point x="286" y="699" type="line"/>
      <point x="581" y="699" type="line" smooth="yes"/>
      <point x="715" y="699"/>
      <point x="846" y="541"/>
      <point x="846" y="407" type="qcurve" smooth="yes"/>
      <point x="846" y="275"/>
      <point x="715" y="119"/>
      <point x="581" y="119" type="qcurve" smooth="yes"/>
    </contour>
    <contour>
      <point x="286" y="808" type="line"/>
      <point x="286" y="1335" type="line"/>
      <point x="551" y="1335" type="line" smooth="yes"/>
      <point x="685" y="1335"/>
      <point x="806" y="1201"/>
      <point x="806" y="1075" type="qcurve" smooth="yes"/>
      <point x="806" y="950"/>
      <point x="685" y="808"/>
      <point x="551" y="808" type="qcurve" smooth="yes"/>
    </contour>
  </outline>
</glyph>
<glyph name="C" format="2">
  <advance width="1165"/>
  <unicode hex="0043"/>
  <anchor x="629" y="0" name="bottom"/>
  <outline>
    <contour>
      <point x="80" y="691" type="line" smooth="yes"/>
      <point x="80" y="323"/>
      <point x="380" y="-19"/>
      <point x="629" y="-19" type="qcurve" smooth="yes"/>
      <point x="859" y="-19"/>
      <point x="1119" y="228"/>
      <point x="1122" y="438" type="qcurve" smooth="yes"/>
      <point x="1122" y="489" type="line"/>
      <point x="965" y="489" type="line"/>
      <point x="964" y="448" type="line" smooth="yes"/>
      <point x="961" y="284"/>
      <point x="795" y="105"/>
      <point x="630" y="105" type="qcurve" smooth="yes"/>
      <point x="454" y="105"/>
      <point x="245" y="386"/>
      <point x="245" y="672" type="qcurve" smooth="yes"/>
      <point x="245" y="784" type="line" smooth="yes"/>
      <point x="245" y="1072"/>
      <point x="446" y="1349"/>
      <point x="630" y="1349" type="qcurve" smooth="yes"/>
      <point x="795" y="1349"/>
      <point x="963" y="1155"/>
      <point x="964" y="1012" type="qcurve" smooth="yes"/>
      <point x="964" y="966" type="line"/>
      <point x="1122" y="966" type="line"/>
      <point x="1121" y="1015" type="line" smooth="yes"/>
      <point x="1118" y="1233"/>
      <point x="857" y="1475"/>
      <point x="628" y="1475" type="qcurve" smooth="yes"/>
      <point x="386" y="1475"/>
      <point x="80" y="1139"/>
      <point x="80" y="764" type="qcurve" smooth="yes"/>
    </contour>
  </outline>
</glyph>
<glyph name="D" format="2">
  <advance width="1169"/>
  <unicode hex="0044"/>
  <outline>
    <contour>
      <point x="129" y="0" type="line"/>
      <point x="517" y="0" type="line" smooth="yes"/>
      <point x="784" y="0"/>
      <point x="1090" y="366"/>
      <point x="1090" y="692" type="qcurve" smooth="yes"/>
      <point x="1090" y="766" type="line" smooth="yes"/>
      <point x="1090" y="1093"/>
      <point x="789" y="1456"/>
      <point x="517" y="1456" type="qcurve" smooth="yes"/>
      <point x="129" y="1456" type="line"/>
    </contour>
    <contour>
      <point x="286" y="126" type="line"/>
      <point x="286" y="1328" type="line"/>
      <point x="510" y="1328" type="line" smooth="yes"/>
      <point x="700" y="1328"/>
      <point x="928" y="1042"/>
      <point x="928" y="774" type="qcurve" smooth="yes"/>
      <point x="928" y="683" type="line" smooth="yes"/>
      <point x="928" y="416"/>
      <point x="709" y="126"/>
      <point x="510" y="126" type="qcurve" smooth="yes"/>
    </contour>
  </outline>
</glyph>
<glyph name="E" format="2">
  <advance width="942"/>
  <unicode hex="0045"/>
  <anchor x="576" y="1432" name="top"/>
  <outline>
    <contour>
      <point x="129" y="0" type="line"/>
      <point x="937" y="0" type="line"/>
      <point x="937" y="131" type="line"/>
      <point x="285" y="131" type="line"/>
      <point x="285" y="685" type="line"/>
      <point x="830" y="685" type="line"/>
      <point x="830" y="811" type="line"/>
      <point x="285" y="811" type="line"/>
      <point x="285" y="1323" type="line"/>
      <point x="926" y="1323" type="line"/>
      <point x="926" y="1456" type="line"/>
      <point x="129" y="1456" type="line"/>
    </contour>
  </outline>
</glyph>
<glyph name="F" format="2">
  <advance width="867"/>
  <unicode hex="0046"/>
  <outline>
    <contour>
      <point x="129" y="0" type="line"/>
      <point x="288" y="0" type="line"/>
      <point x="288" y="671" type="line"/>
      <point x="788" y="671" type="line"/>
      <point x="788" y="799" type="line"/>
      <point x="288" y="799" type="line"/>
      <point x="288" y="1323" type="line"/>
      <point x="853" y="1323" type="line"/>
      <point x="853" y="1456" type="line"/>
      <point x="129" y="1456" type="line"/>
    </contour>
  </outline>
</glyph>
<glyph name="G" format="2">
  <advance width="1201"/>
  <unicode hex="0047"/>
  <outline>
    <contour>
      <point x="80" y="692" type="line" smooth="yes"/>
      <point x="80" y="348"/>
      <point x="381" y="-20"/>
      <point x="652" y="-20" type="qcurve" smooth="yes"/>
      <point x="837" y="-20"/>
      <point x="1072" y="104"/>
      <point x="1118" y="152" type="qcurve"/>
      <point x="1118" y="704" type="line"/>
      <point x="632" y="703" type="line"/>
      <point x="632" y="579" type="line"/>
      <point x="967" y="579" type="line"/>
      <point x="967" y="219" type="line"/>
      <point x="906" y="163"/>
      <point x="758" y="106"/>
      <point x="653" y="106" type="qcurve" smooth="yes"/>
      <point x="459" y="106"/>
      <point x="243" y="398"/>
      <point x="243" y="674" type="qcurve" smooth="yes"/>
      <point x="243" y="782" type="line" smooth="yes"/>
      <point x="243" y="1058"/>
      <point x="447" y="1348"/>
      <point x="625" y="1348" type="qcurve" smooth="yes"/>
      <point x="799" y="1348"/>
      <point x="957" y="1169"/>
      <point x="959" y="1044" type="qcurve" smooth="yes"/>
      <point x="959" y="1016" type="line"/>
      <point x="1115" y="1016" type="line"/>
      <point x="1115" y="1049" type="line" smooth="yes"/>
      <point x="1112" y="1242"/>
      <point x="866" y="1476"/>
      <point x="628" y="1476" type="qcurve" smooth="yes"/>
      <point x="368" y="1476"/>
      <point x="80" y="1108"/>
      <point x="80" y="765" type="qcurve" smooth="yes"/>
    </contour>
  </outline>
</glyph>
<glyph name="H" format="2">
  <advance width="1239"/>
  <unicode hex="0048"/>
  <outline>
    <contour>
      <point x="129" y="0" type="line"/>
      <point x="288" y="0" type="line"/>
      <point x="288" y="684" type="line"/>
      <point x="951" y="684" type="line"/>
      <point x="951" y="0" type="line"/>
      <point x="1110" y="0" type="line"/>
      <point x="1110" y="1456" type="line"/>
      <point x="951" y="1456" type="line"/>
      <point x="951" y="822" type="line"/>
      <point x="288" y="822" type="line"/>
      <point x="288" y="1456" type="line"/>
      <point x="129" y="1456" type="line"/>
    </contour>
  </outline>
</glyph>
<glyph name="I" format="2">
  <advance width="435"/>
  <unicode hex="0049"/>
  <anchor x="221" y="1432" name="top"/>
  <outline>
    <contour>
      <point x="138" y="0" type="line"/>
      <point x="298" y="0" type="line"/>
      <point x="298" y="1456" type="line"/>
      <point x="138" y="1456" type="line"/>
    </contour>
  </outline>
</glyph>
<glyph name="J" format="2">
  <advance width="925"/>
  <unicode hex="004A"/>
  <outline>
    <contour>
      <point x="25" y="409" type="line" smooth="yes"/>
      <point x="25" y="189"/>
      <point x="235" y="-20"/>
      <point x="421" y="-20" type="qcurve" smooth="yes"/>
      <point x="621" y="-20"/>
      <point x="817" y="233"/>
      <point x="817" y="460" type="qcurve" smooth="yes"/>
      <point x="817" y="1456" type="line"/>
      <point x="658" y="1456" type="line"/>
      <point x="658" y="460" type="line" smooth="yes"/>
      <point x="658" y="284"/>
      <point x="534" y="104"/>
      <point x="416" y="104" type="qcurve" smooth="yes"/>
      <point x="299" y="104"/>
      <point x="176" y="251"/>
      <point x="176" y="418" type="qcurve" smooth="yes"/>
      <point x="176" y="459" type="line"/>
      <point x="25" y="459" type="line"/>
    </contour>
  </outline>
</glyph>
<glyph name="K" format="2">
  <advance width="1028"/>
  <unicode hex="004B"/>
  <outline>
    <contour>
      <point x="129" y="0" type="line"/>
      <point x="288" y="0" type="line"/>
      <point x="288" y="539" type="line"/>
      <point x="1052" y="1456" type="line"/>
      <point x="861" y="1456" type="line"/>
      <point x="288" y="757" type="line"/>
      <point x="288" y="1456" type="line"/>
      <point x="129" y="1456" type="line"/>
    </contour>
    <contour>
      <point x="885" y="0" type="line"/>
      <point x="1074" y="0" type="line"/>
      <point x="506" y="857" type="line"/>
      <point x="391" y="753" type="line"/>
    </contour>
  </outline>
</glyph>
<glyph name="L" format="2">
  <advance width="913"/>
  <unicode hex="004C"/>
  <outline>
    <contour>
      <point x="129" y="0" type="line"/>
      <point x="894" y="0" type="line"/>
      <point x="894" y="133" type="line"/>
      <point x="288" y="133" type="line"/>
      <point x="288" y="1456" type="line"/>
      <point x="129" y="1456" type="line"/>
    </contour>
  </outline>
</glyph>
<glyph name="M" format="2">
  <advance width="1597"/>
  <unicode hex="004D"/>
  <outline>
    <contour>
      <point x="129" y="0" type="line"/>
      <point x="273" y="0" type="line"/>
      <point x="272" y="1099" type="line" smooth="yes"/>
      <point x="272" y="1132"/>
      <point x="270" y="1211"/>
      <point x="268" y="1244" type="qcurve"/>
      <point x="274" y="1244" type="line"/>
      <point x="280" y="1211"/>
      <point x="300" y="1132"/>
      <point x="312" y="1099" type="qcurve" smooth="yes"/>
      <point x="722" y="0" type="line"/>
      <point x="863" y="0" type="line"/>
      <point x="1273" y="1101" type="line" smooth="yes"/>
      <point x="1284" y="1134"/>
      <point x="1304" y="1210"/>
      <point x="1310" y="1244" type="qcurve"/>
      <point x="1315" y="1244" type="line"/>
      <point x="1312" y="1212"/>
      <point x="1311" y="1133"/>
      <point x="1311" y="1100" type="qcurve" smooth="yes"/>
      <point x="1311" y="0" type="line"/>
      <point x="1468" y="0" type="line"/>
      <point x="1468" y="1456" type="line"/>
      <point x="1262" y="1456" type="line"/>
      <point x="839" y="326" type="line" smooth="yes"/>
      <point x="828" y="294"/>
      <point x="808" y="231"/>
      <point x="802" y="196" type="qcurve"/>
      <point x="798" y="196" type="line"/>
      <point x="791" y="231"/>
      <point x="771" y="294"/>
      <point x="760" y="326" type="qcurve" smooth="yes"/>
      <point x="337" y="1456" type="line"/>
      <point x="129" y="1456" type="line"/>
    </contour>
  </outline>
</glyph>
<glyph name="N" format="2">
  <advance width="1219"/>
  <unicode hex="004E"/>
  <anchor x="630" y="1432" name="top"/>
  <outline>
    <contour>
      <point x="129" y="0" type="line"/>
      <point x="270" y="0" type="line"/>
      <point x="270" y="1087" type="line" smooth="yes"/>
      <point x="270" y="1121"/>
      <point x="269" y="1191"/>
      <point x="267" y="1223" type="qcurve"/>
      <point x="271" y="1223" type="line"/>
      <point x="280" y="1194"/>
      <point x="311" y="1132"/>
      <point x="325" y="1103" type="qcurve" smooth="yes"/>
      <point x="907" y="0" type="line"/>
      <point x="1088" y="0" type="line"/>
      <point x="1088" y="1456" type="line"/>
      <point x="947" y="1456" type="line"/>
      <point x="947" y="374" type="line" smooth="yes"/>
      <point x="947" y="341"/>
      <point x="946" y="270"/>
      <point x="947" y="237" type="qcurve"/>
      <point x="943" y="237" type="line"/>
      <point x="932" y="267"/>
      <point x="906" y="325"/>
      <point x="890" y="356" type="qcurve" smooth="yes"/>
      <point x="310" y="1456" type="line"/>
      <point x="129" y="1456" type="line"/>
    </contour>
  </outline>
</glyph>
<glyph name="O" format="2">
  <advance width="1262"/>
  <unicode hex="004F"/>
  <anchor x="630" y="1432" name="top"/>
  <outline>
    <contour>
      <point x="80" y="692" type="line" smooth="yes"/>
      <point x="80" y="324"/>
      <point x="387" y="-20"/>
      <point x="630" y="-20" type="qcurve" smooth="yes"/>
      <point x="875" y="-20"/>
      <point x="1182" y="324"/>
      <point x="1182" y="692" type="qcurve" smooth="yes"/>
      <point x="1182" y="765" type="line" smooth="yes"/>
      <point x="1182" y="1133"/>
      <point x="875" y="1476"/>
      <point x="630" y="1476" type="qcurve" smooth="yes"/>
      <point x="387" y="1476"/>
      <point x="80" y="1133"/>
      <point x="80" y="765" type="qcurve" smooth="yes"/>
    </contour>
    <contour>
      <point x="244" y="673" type="qcurve" smooth="yes"/>
      <point x="244" y="784" type="line" smooth="yes"/>
      <point x="244" y="1088"/>
      <point x="454" y="1350"/>
      <point x="631" y="1350" type="qcurve" smooth="yes"/>
      <point x="807" y="1350"/>
      <point x="1018" y="1088"/>
      <point x="1018" y="784" type="qcurve" smooth="yes"/>
      <point x="1018" y="672" type="line" smooth="yes"/>
      <point x="1018" y="367"/>
      <point x="807" y="105"/>
      <point x="631" y="105" type="qcurve" smooth="yes"/>
      <point x="455" y="105"/>
      <point x="244" y="367"/>
    </contour>
  </outline>
</glyph>
<glyph name="P" format="2">
  <advance width="1039"/>
  <unicode hex="0050"/>
  <outline>
    <contour>
      <point x="129" y="0" type="line"/>
      <point x="288" y="0" type="line"/>
      <point x="288" y="570" type="line"/>
      <point x="575" y="570" type="line" smooth="yes"/>
      <point x="789" y="570"/>
      <point x="996" y="819"/>
      <point x="996" y="1014" type="qcurve" smooth="yes"/>
      <point x="996" y="1210"/>
      <point x="788" y="1456"/>
      <point x="576" y="1456" type="qcurve" smooth="yes"/>
      <point x="129" y="1456" type="line"/>
    </contour>
    <contour>
      <point x="288" y="695" type="line"/>
      <point x="288" y="1328" type="line"/>
      <point x="558" y="1328" type="line" smooth="yes"/>
      <point x="712" y="1328"/>
      <point x="836" y="1144"/>
      <point x="836" y="1012" type="qcurve" smooth="yes"/>
      <point x="836" y="880"/>
      <point x="712" y="695"/>
      <point x="558" y="695" type="qcurve" smooth="yes"/>
    </contour>
  </outline>
</glyph>
<glyph name="Q" format="2">
  <advance width="1262"/>
  <unicode hex="0051"/>
  <outline>
    <contour>
      <point x="80" y="692" type="line" smooth="yes"/>
      <point x="80" y="332"/>
      <point x="386" y="-20"/>
      <point x="630" y="-20" type="qcurve" smooth="yes"/>
      <point x="876" y="-20"/>
      <point x="1182" y="332"/>
      <point x="1182" y="692" type="qcurve" smooth="yes"/>
      <point x="1182" y="765" type="line" smooth="yes"/>
      <point x="1182" y="1133"/>
      <point x="876" y="1476"/>
      <point x="630" y="1476" type="qcurve" smooth="yes"/>
      <point x="386" y="1476"/>
      <point x="80" y="1133"/>
      <point x="80" y="765" type="qcurve" smooth="yes"/>
    </contour>
    <contour>
      <point x="244" y="673" type="qcurve" smooth="yes"/>
      <point x="244" y="784" type="line" smooth="yes"/>
      <point x="244" y="1088"/>
      <point x="454" y="1350"/>
      <point x="631" y="1350" type="qcurve" smooth="yes"/>
      <point x="807" y="1350"/>
      <point x="1018" y="1088"/>
      <point x="1018" y="784" type="qcurve" smooth="yes"/>
      <point x="1018" y="672" type="line" smooth="yes"/>
      <point x="1018" y="376"/>
      <point x="807" y="105"/>
      <point x="631" y="105" type="qcurve" smooth="yes"/>
      <point x="454" y="105"/>
      <point x="244" y="376"/>
    </contour>
    <contour>
      <point x="1115" y="-227" type="line"/>
      <point x="1200" y="-124" type="line"/>
      <point x="750" y="299" type="line"/>
      <point x="668" y="198" type="line"/>
    </contour>
  </outline>
</glyph>
<glyph name="R" format="2">
  <advance width="1048"/>
  <unicode hex="0052"/>
  <outline>
    <contour>
      <point x="129" y="0" type="line"/>
      <point x="288" y="0" type="line"/>
      <point x="288" y="606" type="line"/>
      <point x="570" y="606" type="line" smooth="yes"/>
      <point x="768" y="606"/>
      <point x="980" y="845"/>
      <point x="980" y="1035" type="qcurve" smooth="yes"/>
      <point x="980" y="1223"/>
      <point x="772" y="1456"/>
      <point x="571" y="1456" type="qcurve" smooth="yes"/>
      <point x="129" y="1456" type="line"/>
    </contour>
    <contour>
      <point x="288" y="726" type="line"/>
      <point x="288" y="1329" type="line"/>
      <point x="554" y="1329" type="line" smooth="yes"/>
      <point x="701" y="1329"/>
      <point x="821" y="1163"/>
      <point x="821" y="1030" type="qcurve" smooth="yes"/>
      <point x="821" y="898"/>
      <point x="701" y="726"/>
      <point x="554" y="726" type="qcurve" smooth="yes"/>
    </contour>
    <contour>
      <point x="869" y="0" type="line"/>
      <point x="1048" y="0" type="line"/>
      <point x="692" y="667" type="line"/>
      <point x="525" y="667" type="line"/>
    </contour>
  </outline>
</glyph>
<glyph name="S" format="2">
  <advance width="1075"/>
  <unicode hex="0053"/>
  <outline>
    <contour>
      <point x="78" y="387" type="line" smooth="yes"/>
      <point x="79" y="185"/>
      <point x="333" y="-20"/>
      <point x="546" y="-20" type="qcurve" smooth="yes"/>
      <point x="759" y="-20"/>
      <point x="1005" y="194"/>
      <point x="1005" y="374" type="qcurve" smooth="yes"/>
      <point x="1005" y="540"/>
      <point x="807" y="737"/>
      <point x="598" y="804" type="qcurve" smooth="yes"/>
      <point x="389" y="872"/>
      <point x="257" y="1000"/>
      <point x="257" y="1106" type="qcurve" smooth="yes"/>
      <point x="257" y="1219"/>
      <point x="389" y="1353"/>
      <point x="538" y="1353" type="qcurve" smooth="yes"/>
      <point x="680" y="1353"/>
      <point x="822" y="1206"/>
      <point x="824" y="1079" type="qcurve" smooth="yes"/>
      <point x="824" y="1033" type="line"/>
      <point x="975" y="1033" type="line"/>
      <point x="975" y="1085" type="line" smooth="yes"/>
      <point x="973" y="1273"/>
      <point x="736" y="1476"/>
      <point x="536" y="1476" type="qcurve" smooth="yes"/>
      <point x="330" y="1476"/>
      <point x="104" y="1266"/>
      <point x="104" y="1098" type="qcurve" smooth="yes"/>
      <point x="104" y="940"/>
      <point x="301" y="744"/>
      <point x="512" y="675" type="qcurve" smooth="yes"/>
      <point x="716" y="608"/>
      <point x="851" y="476"/>
      <point x="851" y="364" type="qcurve" smooth="yes"/>
      <point x="851" y="246"/>
      <point x="696" y="102"/>
      <point x="545" y="102" type="qcurve" smooth="yes"/>
      <point x="395" y="102"/>
      <point x="232" y="246"/>
      <point x="230" y="393" type="qcurve" smooth="yes"/>
      <point x="230" y="458" type="line"/>
      <point x="77" y="458" type="line"/>
    </contour>
  </outline>
</glyph>
<glyph name="T" format="2">
  <advance width="1036"/>
  <unicode hex="0054"/>
  <outline>
    <contour>
      <point x="12" y="1323" type="line"/>
      <point x="439" y="1323" type="line"/>
      <point x="439" y="0" type="line"/>
      <point x="599" y="0" type="line"/>
      <point x="599" y="1323" type="line"/>
      <point x="1023" y="1323" type="line"/>
      <point x="1023" y="1456" type="line"/>
      <point x="12" y="1456" type="line"/>
    </contour>
  </outline>
</glyph>
<glyph name="U" format="2">
  <advance width="1171"/>
  <unicode hex="0055"/>
  <anchor x="602" y="1432" name="top"/>
  <outline>
    <contour>
      <point x="118" y="508" type="line" smooth="yes"/>
      <point x="118" y="239"/>
      <point x="363" y="-20"/>
      <point x="588" y="-20" type="qcurve" smooth="yes"/>
      <point x="812" y="-20"/>
      <point x="1052" y="240"/>
      <point x="1052" y="508" type="qcurve" smooth="yes"/>
      <point x="1052" y="1456" type="line"/>
      <point x="893" y="1456" type="line"/>
      <point x="893" y="499" type="line" smooth="yes"/>
      <point x="893" y="290"/>
      <point x="734" y="105"/>
      <point x="587" y="105" type="qcurve" smooth="yes"/>
      <point x="440" y="105"/>
      <point x="276" y="291"/>
      <point x="276" y="499" type="qcurve" smooth="yes"/>
      <point x="276" y="1456" type="line"/>
      <point x="118" y="1456" type="line"/>
    </contour>
  </outline>
</glyph>
<glyph name="V" format="2">
  <advance width="1083"/>
  <unicode hex="0056"/>
  <outline>
    <contour>
      <point x="-15" y="1456" type="line"/>
      <point x="446" y="-9" type="line"/>
      <point x="636" y="-9" type="line"/>
      <point x="1098" y="1456" type="line"/>
      <point x="942" y="1456" type="line"/>
      <point x="580" y="277" type="line" smooth="yes"/>
      <point x="573" y="256"/>
      <point x="557" y="203"/>
      <point x="547" y="176" type="qcurve"/>
      <point x="545" y="176" type="line"/>
      <point x="538" y="199"/>
      <point x="521" y="250"/>
      <point x="512" y="277" type="qcurve" smooth="yes"/>
      <point x="151" y="1456" type="line"/>
    </contour>
  </outline>
</glyph>
<glyph name="W" format="2">
  <advance width="1679"/>
  <unicode hex="0057"/>
  <outline>
    <contour>
      <point x="351" y="-8" type="line"/>
      <point x="519" y="-8" type="line"/>
      <point x="820" y="1167" type="line" smooth="yes"/>
      <point x="824" y="1184"/>
      <point x="834" y="1235"/>
      <point x="839" y="1266" type="qcurve"/>
      <point x="841" y="1266" type="line"/>
      <point x="846" y="1235"/>
      <point x="855" y="1183"/>
      <point x="860" y="1167" type="qcurve"/>
      <point x="1161" y="-8" type="line"/>
      <point x="1328" y="-8" type="line"/>
      <point x="1674" y="1456" type="line"/>
      <point x="1533" y="1456" type="line"/>
      <point x="1266" y="304" type="line" smooth="yes"/>
      <point x="1262" y="285"/>
      <point x="1253" y="234"/>
      <point x="1250" y="201" type="qcurve"/>
      <point x="1247" y="201" type="line"/>
      <point x="1242" y="235"/>
      <point x="1231" y="293"/>
      <point x="1229" y="304" type="qcurve"/>
      <point x="931" y="1456" type="line"/>
      <point x="763" y="1456" type="line"/>
      <point x="470" y="305" type="line" smooth="yes"/>
      <point x="465" y="284"/>
      <point x="455" y="232"/>
      <point x="451" y="202" type="qcurve"/>
      <point x="449" y="202" type="line"/>
      <point x="444" y="235"/>
      <point x="437" y="284"/>
      <point x="432" y="305" type="qcurve" smooth="yes"/>
      <point x="164" y="1456" type="line"/>
      <point x="5" y="1456" type="line"/>
    </contour>
  </outline>
</glyph>
<glyph name="X" format="2">
  <advance width="996"/>
  <unicode hex="0058"/>
  <outline>
    <contour>
      <point x="-13" y="0" type="line"/>
      <point x="144" y="0" type="line"/>
      <point x="540" y="708" type="line"/>
      <point x="568" y="714" type="line"/>
      <point x="985" y="1456" type="line"/>
      <point x="829" y="1456" type="line"/>
      <point x="458" y="794" type="line"/>
      <point x="431" y="788" type="line"/>
    </contour>
    <contour>
      <point x="11" y="1456" type="line"/>
      <point x="429" y="710" type="line"/>
      <point x="434" y="704" type="line"/>
      <point x="824" y="0" type="line"/>
      <point x="1007" y="0" type="line"/>
      <point x="565" y="790" type="line"/>
      <point x="558" y="798" type="line"/>
      <point x="193" y="1456" type="line"/>
    </contour>
  </outline>
</glyph>
<glyph name="Y" format="2">
  <advance width="1095"/>
  <unicode hex="0059"/>
  <anchor x="559" y="1432" name="top"/>
  <outline>
    <contour>
      <point x="468" y="0" type="line"/>
      <point x="628" y="0" type="line"/>
      <point x="628" y="580" type="line"/>
      <point x="1089" y="1456" type="line"/>
      <point x="927" y="1456" type="line"/>
      <point x="606" y="833" type="line" smooth="yes"/>
      <point x="591" y="805"/>
      <point x="570" y="760"/>
      <point x="559" y="732" type="qcurve"/>
      <point x="554" y="732" type="line"/>
      <point x="542" y="760"/>
      <point x="521" y="805"/>
      <point x="507" y="833" type="qcurve" smooth="yes"/>
      <point x="184" y="1456" type="line"/>
      <point x="6" y="1456" type="line"/>
      <point x="468" y="580" type="line"/>
    </contour>
  </outline>
</glyph>
<glyph name="Z" format="2">
  <advance width="1035"/>
  <unicode hex="005A"/>
  <outline>
    <contour>
      <point x="34" y="0" type="line"/>
      <point x="1000" y="0" type="line"/>
      <point x="1000" y="131" type="line"/>
      <point x="242" y="131" type="line"/>
      <point x="974" y="1364" type="line"/>
      <point x="974" y="1456" type="line"/>
      <point x="75" y="1456" type="line"/>
      <point x="75" y="1323" type="line"/>
      <point x="768" y="1323" type="line"/>
      <point x="34" y="90" type="line"/>
    </contour>
  </outline>
</glyph>
<glyph name="bracketleft" format="2">
  <advance width="612"/>
  <unicode hex="005B"/>
  <outline>
    <contour>
      <point x="144" y="-310" type="line"/>
      <point x="567" y="-310" type="line"/>
      <point x="567" y="-197" type="line"/>
      <point x="295" y="-197" type="line"/>
      <point x="295" y="1343" type="line"/>
      <point x="567" y="1343" type="line"/>
      <point x="567" y="1456" type="line"/>
      <point x="144" y="1456" type="line"/>
    </contour>
  </outline>
</glyph>
<glyph name="backslash" format="2">
  <advance width="553"/>
  <unicode hex="005C"/>
  <outline>
    <contour>
      <point x="-88" y="1456" type="line"/>
      <point x="507" y="-125" type="line"/>
      <point x="645" y="-125" type="line"/>
      <point x="51" y="1456" type="line"/>
    </contour>
  </outline>
</glyph>
<glyph name="bracketright" format="2">
  <advance width="612"/>
  <unicode hex="005D"/>
  <outline>
    <contour>
      <point x="468" y="-310" type="line"/>
      <point x="468" y="1456" type="line"/>
      <point x="45" y="1456" type="line"/>
      <point x="45" y="1343" type="line"/>
      <point x="317" y="1343" type="line"/>
      <point x="317" y="-197" type="line"/>
      <point x="45" y="-197" type="line"/>
      <point x="45" y="-310" type="line"/>
    </contour>
  </outline>
</glyph>
<glyph name="asciicircum" format="2">
  <advance width="1077"/>
  <unicode hex="005E"/>
  <outline>
    <contour>
      <point x="23" y="720" type="line"/>
      <point x="185" y="720" type="line"/>
      <point x="538" y="1313" type="line"/>
      <point x="892" y="720" type="line"/>
      <point x="1054" y="720" type="line"/>
      <point x="606" y="1456" type="line"/>
      <point x="472" y="1456" type="line"/>
    </contour>
  </outline>
</glyph>
<glyph name="underscore" format="2">
  <advance width="908"/>
  <unicode hex="005F"/>
  <outline>
    <contour>
      <point x="0" y="-205" type="line"/>
      <point x="298" y="-205" type="line"/>
      <point x="298" y="-92" type="line"/>
      <point x="0" y="-92" type="line"/>
    </contour>
    <contour>
      <point x="298" y="-205" type="line"/>
      <point x="596" y="-205" type="line"/>
      <point x="596" y="-92" type="line"/>
      <point x="298" y="-92" type="line"/>
    </contour>
    <contour>
      <point x="596" y="-205" type="line"/>
      <point x="908" y="-205" type="line"/>
      <point x="908" y="-92" type="line"/>
      <point x="596" y="-92" type="line"/>
    </contour>
  </outline>
</glyph>
<glyph name="grave" format="2">
  <advance width="1030"/>
  <unicode hex="0060"/>
  <anchor x="472" y="1052" name="_top"/>
  <outline>
    <contour>
      <point x="467" y="1147" type="line"/>
      <point x="611" y="1147" type="line"/>
      <point x="393" y="1454" type="line"/>
      <point x="229" y="1454" type="line"/>
    </contour>
  </outline>
</glyph>
<glyph name="a" format="2">
  <advance width="946"/>
  <unicode hex="0061"/>
  <anchor x="478" y="915" name="top"/>
  <outline>
    <contour>
      <point x="53" y="257" type="qcurve" smooth="yes"/>
      <point x="53" y="124"/>
      <point x="216" y="-13"/>
      <point x="363" y="-13" type="qcurve" smooth="yes"/>
      <point x="485" y="-13"/>
      <point x="647" y="86"/>
      <point x="680" y="145" type="qcurve"/>
      <point x="685" y="103"/>
      <point x="705" y="26"/>
      <point x="721" y="0" type="qcurve"/>
      <point x="868" y="0" type="line"/>
      <point x="868" y="16" type="line"/>
      <point x="849" y="57"/>
      <point x="831" y="171"/>
      <point x="831" y="234" type="qcurve" smooth="yes"/>
      <point x="831" y="636" type="line" smooth="yes"/>
      <point x="831" y="799"/>
      <point x="650" y="936"/>
      <point x="479" y="936" type="qcurve" smooth="yes"/>
      <point x="306" y="936"/>
      <point x="108" y="787"/>
      <point x="108" y="677" type="qcurve" smooth="yes"/>
      <point x="108" y="642" type="line"/>
      <point x="256" y="642" type="line"/>
      <point x="256" y="666" type="line" smooth="yes"/>
      <point x="256" y="740"/>
      <point x="368" y="825"/>
      <point x="473" y="825" type="qcurve" smooth="yes"/>
      <point x="582" y="825"/>
      <point x="677" y="729"/>
      <point x="677" y="641" type="qcurve" smooth="yes"/>
      <point x="677" y="552" type="line"/>
      <point x="437" y="553" type="line" smooth="yes"/>
      <point x="260" y="553"/>
      <point x="53" y="390"/>
    </contour>
    <contour>
      <point x="206" y="258" type="qcurve" smooth="yes"/>
      <point x="206" y="350"/>
      <point x="337" y="451"/>
      <point x="475" y="451" type="qcurve" smooth="yes"/>
      <point x="677" y="450" type="line"/>
      <point x="677" y="325" type="line" smooth="yes"/>
      <point x="677" y="237"/>
      <point x="506" y="96"/>
      <point x="402" y="96" type="qcurve" smooth="yes"/>
      <point x="307" y="96"/>
      <point x="206" y="179"/>
    </contour>
  </outline>
</glyph>
<glyph name="b" format="2">
  <advance width="1004"/>
  <unicode hex="0062"/>
  <outline>
    <contour>
      <point x="114" y="0" type="line"/>
      <point x="263" y="0" type="line"/>
      <point x="263" y="121" type="line"/>
      <point x="264" y="121" type="line"/>
      <point x="304" y="60"/>
      <point x="465" y="-21"/>
      <point x="570" y="-21" type="qcurve" smooth="yes"/>
      <point x="747" y="-21"/>
      <point x="950" y="250"/>
      <point x="950" y="452" type="qcurve" smooth="yes"/>
      <point x="950" y="483" type="line" smooth="yes"/>
      <point x="950" y="684"/>
      <point x="749" y="936"/>
      <point x="571" y="936" type="qcurve" smooth="yes"/>
      <point x="466" y="936"/>
      <point x="314" y="857"/>
      <point x="267" y="795" type="qcurve"/>
      <point x="267" y="1458" type="line"/>
      <point x="114" y="1458" type="line"/>
    </contour>
    <contour>
      <point x="268" y="263" type="qcurve"/>
      <point x="268" y="653" type="line"/>
      <point x="297" y="716"/>
      <point x="430" y="813"/>
      <point x="524" y="813" type="qcurve" smooth="yes"/>
      <point x="664" y="813"/>
      <point x="794" y="630"/>
      <point x="794" y="481" type="qcurve" smooth="yes"/>
      <point x="794" y="454" type="line" smooth="yes"/>
      <point x="794" y="302"/>
      <point x="664" y="101"/>
      <point x="534" y="101" type="qcurve" smooth="yes"/>
      <point x="429" y="101"/>
      <point x="299" y="199"/>
    </contour>
  </outline>
</glyph>
<glyph name="c" format="2">
  <advance width="897"/>
  <unicode hex="0063"/>
  <anchor x="480.0" y="0.0" name="bottom"/>
  <outline>
    <contour>
      <point x="54" y="443" type="line" smooth="yes"/>
      <point x="54" y="227"/>
      <point x="284" y="-21"/>
      <point x="481" y="-21" type="qcurve" smooth="yes"/>
      <point x="675" y="-21"/>
      <point x="863" y="180"/>
      <point x="865" y="321" type="qcurve" smooth="yes"/>
      <point x="865" y="338" type="line"/>
      <point x="722" y="338" type="line"/>
      <point x="722" y="323" type="line"/>
      <point x="721" y="228"/>
      <point x="611" y="100"/>
      <point x="481" y="100" type="qcurve" smooth="yes"/>
      <point x="345" y="100"/>
      <point x="210" y="285"/>
      <point x="210" y="441" type="qcurve" smooth="yes"/>
      <point x="210" y="476" type="line" smooth="yes"/>
      <point x="210" y="641"/>
      <point x="350" y="813"/>
      <point x="482" y="813" type="qcurve" smooth="yes"/>
      <point x="612" y="813"/>
      <point x="717" y="695"/>
      <point x="718" y="599" type="qcurve" smooth="yes"/>
      <point x="718" y="584" type="line"/>
      <point x="865" y="584" type="line"/>
      <point x="865" y="601" type="line" smooth="yes"/>
      <point x="863" y="751"/>
      <point x="673" y="937"/>
      <point x="480" y="937" type="qcurve" smooth="yes"/>
      <point x="281" y="937"/>
      <point x="54" y="692"/>
      <point x="54" y="474" type="qcurve" smooth="yes"/>
    </contour>
  </outline>
</glyph>
<glyph name="d" format="2">
  <advance width="1004"/>
  <unicode hex="0064"/>
  <outline>
    <contour>
      <point x="54" y="443" type="line" smooth="yes"/>
      <point x="54" y="240"/>
      <point x="258" y="-21"/>
      <point x="439" y="-21" type="qcurve" smooth="yes"/>
      <point x="546" y="-21"/>
      <point x="699" y="69"/>
      <point x="740" y="132" type="qcurve"/>
      <point x="742" y="132" type="line"/>
      <point x="742" y="0" type="line"/>
      <point x="890" y="0" type="line"/>
      <point x="890" y="1458" type="line"/>
      <point x="738" y="1458" type="line"/>
      <point x="738" y="808" type="line"/>
      <point x="698" y="864"/>
      <point x="548" y="935"/>
      <point x="439" y="935" type="qcurve" smooth="yes"/>
      <point x="263" y="935"/>
      <point x="54" y="675"/>
      <point x="54" y="474" type="qcurve" smooth="yes"/>
    </contour>
    <contour>
      <point x="209" y="444" type="qcurve" smooth="yes"/>
      <point x="209" y="472" type="line" smooth="yes"/>
      <point x="209" y="621"/>
      <point x="340" y="813"/>
      <point x="481" y="813" type="qcurve" smooth="yes"/>
      <point x="575" y="813"/>
      <point x="708" y="724"/>
      <point x="736" y="661" type="qcurve"/>
      <point x="736" y="263" type="line"/>
      <point x="708" y="199"/>
      <point x="576" y="101"/>
      <point x="481" y="101" type="qcurve" smooth="yes"/>
      <point x="341" y="101"/>
      <point x="209" y="293"/>
    </contour>
  </outline>
</glyph>
<glyph name="e" format="2">
  <advance width="917"/>
  <unicode hex="0065"/>
  <anchor x="478" y="915" name="top"/>
  <outline>
    <contour>
      <point x="54" y="444" type="line" smooth="yes"/>
      <point x="54" y="232"/>
      <point x="288" y="-21"/>
      <point x="504" y="-21" type="qcurve" smooth="yes"/>
      <point x="642" y="-21"/>
      <point x="827" y="88"/>
      <point x="867" y="163" type="qcurve"/>
      <point x="752" y="229" type="line"/>
      <point x="711" y="167"/>
      <point x="592" y="99"/>
      <point x="504" y="99" type="qcurve" smooth="yes"/>
      <point x="353" y="99"/>
      <point x="205" y="288"/>
      <point x="205" y="443" type="qcurve" smooth="yes"/>
      <point x="205" y="475" type="line" smooth="yes"/>
      <point x="205" y="630"/>
      <point x="345" y="816"/>
      <point x="478" y="816" type="qcurve" smooth="yes"/>
      <point x="612" y="816"/>
      <point x="724" y="645"/>
      <point x="724" y="540" type="qcurve" smooth="yes"/>
      <point x="724" y="535" type="line"/>
      <point x="164" y="535" type="line"/>
      <point x="164" y="438" type="line"/>
      <point x="874" y="438" type="line"/>
      <point x="874" y="487" type="line" smooth="yes"/>
      <point x="874" y="696"/>
      <point x="668" y="936"/>
      <point x="479" y="936" type="qcurve" smooth="yes"/>
      <point x="286" y="936"/>
      <point x="54" y="683"/>
      <point x="54" y="474" type="qcurve" smooth="yes"/>
    </contour>
  </outline>
</glyph>
<glyph name="f" format="2">
  <advance width="516"/>
  <unicode hex="0066"/>
  <outline>
    <contour>
      <point x="167" y="0" type="line"/>
      <point x="320" y="0" type="line"/>
      <point x="320" y="868" type="line"/>
      <point x="319" y="879" type="line"/>
      <point x="319" y="1103" type="line" smooth="yes"/>
      <point x="319" y="1235"/>
      <point x="415" y="1351"/>
      <point x="502" y="1351" type="qcurve" smooth="yes"/>
      <point x="530" y="1351"/>
      <point x="581" y="1342"/>
      <point x="599" y="1338" type="qcurve"/>
      <point x="610" y="1462" type="line"/>
      <point x="582" y="1469"/>
      <point x="521" y="1478"/>
      <point x="490" y="1478" type="qcurve" smooth="yes"/>
      <point x="339" y="1478"/>
      <point x="167" y="1293"/>
      <point x="167" y="1113" type="qcurve" smooth="yes"/>
    </contour>
    <contour>
      <point x="-2" y="790" type="line"/>
      <point x="527" y="790" type="line"/>
      <point x="527" y="914" type="line"/>
      <point x="232" y="914" type="line"/>
      <point x="214" y="914" type="line"/>
      <point x="-2" y="914" type="line"/>
    </contour>
  </outline>
</glyph>
<glyph name="g" format="2">
  <advance width="1004"/>
  <unicode hex="0067"/>
  <outline>
    <contour>
      <point x="100" y="-323" type="line"/>
      <point x="163" y="-370"/>
      <point x="353" y="-433"/>
      <point x="469" y="-433" type="qcurve" smooth="yes"/>
      <point x="665" y="-433"/>
      <point x="890" y="-191"/>
      <point x="890" y="49" type="qcurve" smooth="yes"/>
      <point x="890" y="914" type="line"/>
      <point x="741" y="914" type="line"/>
      <point x="740" y="791" type="line"/>
      <point x="739" y="791" type="line"/>
      <point x="698" y="853"/>
      <point x="536" y="935"/>
      <point x="436" y="935" type="qcurve" smooth="yes"/>
      <point x="253" y="935"/>
      <point x="54" y="675"/>
      <point x="54" y="474" type="qcurve" smooth="yes"/>
      <point x="54" y="443" type="line" smooth="yes"/>
      <point x="54" y="240"/>
      <point x="255" y="-13"/>
      <point x="430" y="-13" type="qcurve" smooth="yes"/>
      <point x="541" y="-13"/>
      <point x="691" y="65"/>
      <point x="737" y="127" type="qcurve"/>
      <point x="737" y="32" type="line" smooth="yes"/>
      <point x="737" y="-151"/>
      <point x="577" y="-314"/>
      <point x="451" y="-314" type="qcurve" smooth="yes"/>
      <point x="360" y="-314"/>
      <point x="198" y="-248"/>
      <point x="153" y="-209" type="qcurve"/>
    </contour>
    <contour>
      <point x="209" y="444" type="qcurve" smooth="yes"/>
      <point x="209" y="472" type="line" smooth="yes"/>
      <point x="209" y="621"/>
      <point x="340" y="813"/>
      <point x="481" y="813" type="qcurve" smooth="yes"/>
      <point x="575" y="813"/>
      <point x="708" y="716"/>
      <point x="736" y="653" type="qcurve"/>
      <point x="736" y="269" type="line"/>
      <point x="709" y="206"/>
      <point x="576" y="107"/>
      <point x="481" y="107" type="qcurve" smooth="yes"/>
      <point x="340" y="107"/>
      <point x="209" y="293"/>
    </contour>
  </outline>
</glyph>
<glyph name="h" format="2">
  <advance width="974"/>
  <unicode hex="0068"/>
  <outline>
    <contour>
      <point x="114" y="0" type="line"/>
      <point x="268" y="0" type="line"/>
      <point x="268" y="639" type="line"/>
      <point x="306" y="714"/>
      <point x="433" y="811"/>
      <point x="518" y="811" type="qcurve" smooth="yes"/>
      <point x="613" y="811"/>
      <point x="716" y="703"/>
      <point x="716" y="582" type="qcurve" smooth="yes"/>
      <point x="716" y="0" type="line"/>
      <point x="871" y="0" type="line"/>
      <point x="871" y="602" type="line" smooth="yes"/>
      <point x="871" y="779"/>
      <point x="709" y="936"/>
      <point x="572" y="936" type="qcurve" smooth="yes"/>
      <point x="469" y="936"/>
      <point x="314" y="858"/>
      <point x="268" y="786" type="qcurve"/>
      <point x="268" y="1458" type="line"/>
      <point x="114" y="1458" type="line"/>
    </contour>
  </outline>
</glyph>
<glyph name="i" format="2">
  <advance width="394"/>
  <unicode hex="0069"/>
  <outline>
    <contour>
      <point x="119" y="0" type="line"/>
      <point x="275" y="0" type="line"/>
      <point x="275" y="914" type="line"/>
      <point x="119" y="914" type="line"/>
    </contour>
    <contour>
      <point x="98" y="1258" type="qcurve" smooth="yes"/>
      <point x="98" y="1217"/>
      <point x="149" y="1160"/>
      <point x="196" y="1160" type="qcurve" smooth="yes"/>
      <point x="244" y="1160"/>
      <point x="295" y="1217"/>
      <point x="295" y="1258" type="qcurve" smooth="yes"/>
      <point x="295" y="1299"/>
      <point x="245" y="1353"/>
      <point x="197" y="1353" type="qcurve" smooth="yes"/>
      <point x="150" y="1353"/>
      <point x="98" y="1298"/>
    </contour>
  </outline>
</glyph>
<glyph name="j" format="2">
  <advance width="394"/>
  <unicode hex="006A"/>
  <outline>
    <contour>
      <point x="-137" y="-414" type="line"/>
      <point x="-115" y="-422"/>
      <point x="-40" y="-436"/>
      <point x="-4" y="-436" type="qcurve" smooth="yes"/>
      <point x="133" y="-436"/>
      <point x="277" y="-262"/>
      <point x="277" y="-71" type="qcurve" smooth="yes"/>
      <point x="277" y="914" type="line"/>
      <point x="122" y="914" type="line"/>
      <point x="122" y="-86" type="line" smooth="yes"/>
      <point x="122" y="-213"/>
      <point x="44" y="-311"/>
      <point x="-28" y="-311" type="qcurve" smooth="yes"/>
      <point x="-59" y="-311"/>
      <point x="-121" y="-297"/>
      <point x="-138" y="-291" type="qcurve"/>
    </contour>
    <contour>
      <point x="101" y="1258" type="qcurve" smooth="yes"/>
      <point x="101" y="1217"/>
      <point x="152" y="1160"/>
      <point x="199" y="1160" type="qcurve" smooth="yes"/>
      <point x="247" y="1160"/>
      <point x="298" y="1217"/>
      <point x="298" y="1258" type="qcurve" smooth="yes"/>
      <point x="298" y="1299"/>
      <point x="248" y="1353"/>
      <point x="200" y="1353" type="qcurve" smooth="yes"/>
      <point x="153" y="1353"/>
      <point x="101" y="1298"/>
    </contour>
  </outline>
</glyph>
<glyph name="k" format="2">
  <advance width="874"/>
  <unicode hex="006B"/>
  <outline>
    <contour>
      <point x="114" y="0" type="line"/>
      <point x="268" y="0" type="line"/>
      <point x="268" y="329" type="line"/>
      <point x="842" y="914" type="line"/>
      <point x="640" y="914" type="line"/>
      <point x="268" y="524" type="line"/>
      <point x="268" y="1458" type="line"/>
      <point x="114" y="1458" type="line"/>
    </contour>
    <contour>
      <point x="704" y="0" type="line"/>
      <point x="893" y="0" type="line"/>
      <point x="463" y="592" type="line"/>
      <point x="350" y="487" type="line"/>
    </contour>
  </outline>
</glyph>
<glyph name="l" format="2">
  <advance width="382"/>
  <unicode hex="006C"/>
  <outline>
    <contour>
      <point x="114" y="0" type="line"/>
      <point x="269" y="0" type="line"/>
      <point x="269" y="1458" type="line"/>
      <point x="114" y="1458" type="line"/>
    </contour>
  </outline>
</glyph>
<glyph name="m" format="2">
  <advance width="1533"/>
  <unicode hex="006D"/>
  <outline>
    <contour>
      <point x="114" y="0" type="line"/>
      <point x="268" y="0" type="line"/>
      <point x="268" y="640" type="line"/>
      <point x="305" y="712"/>
      <point x="424" y="811"/>
      <point x="503" y="811" type="qcurve" smooth="yes"/>
      <point x="595" y="811"/>
      <point x="694" y="711"/>
      <point x="694" y="591" type="qcurve" smooth="yes"/>
      <point x="694" y="0" type="line"/>
      <point x="850" y="0" type="line"/>
      <point x="850" y="641" type="line"/>
      <point x="886" y="714"/>
      <point x="1002" y="811"/>
      <point x="1084" y="811" type="qcurve" smooth="yes"/>
      <point x="1176" y="811"/>
      <point x="1275" y="712"/>
      <point x="1275" y="591" type="qcurve" smooth="yes"/>
      <point x="1275" y="0" type="line"/>
      <point x="1430" y="0" type="line"/>
      <point x="1430" y="602" type="line" smooth="yes"/>
      <point x="1430" y="780"/>
      <point x="1271" y="936"/>
      <point x="1142" y="936" type="qcurve" smooth="yes"/>
      <point x="1036" y="936"/>
      <point x="872" y="846"/>
      <point x="824" y="767" type="qcurve"/>
      <point x="823" y="767" type="line"/>
      <point x="798" y="849"/>
      <point x="661" y="936"/>
      <point x="561" y="936" type="qcurve" smooth="yes"/>
      <point x="463" y="936"/>
      <point x="314" y="848"/>
      <point x="264" y="775" type="qcurve"/>
      <point x="263" y="775" type="line"/>
      <point x="263" y="914" type="line"/>
      <point x="114" y="914" type="line"/>
    </contour>
  </outline>
</glyph>
<glyph name="n" format="2">
  <advance width="974"/>
  <unicode hex="006E"/>
  <anchor x="528" y="915" name="top"/>
  <outline>
    <contour>
      <point x="114" y="0" type="line"/>
      <point x="268" y="0" type="line"/>
      <point x="268" y="639" type="line"/>
      <point x="306" y="714"/>
      <point x="433" y="811"/>
      <point x="517" y="811" type="qcurve" smooth="yes"/>
      <point x="613" y="811"/>
      <point x="717" y="703"/>
      <point x="717" y="582" type="qcurve" smooth="yes"/>
      <point x="717" y="0" type="line"/>
      <point x="871" y="0" type="line"/>
      <point x="871" y="602" type="line" smooth="yes"/>
      <point x="871" y="779"/>
      <point x="710" y="936"/>
      <point x="572" y="936" type="qcurve" smooth="yes"/>
      <point x="468" y="936"/>
      <point x="308" y="853"/>
      <point x="264" y="778" type="qcurve"/>
      <point x="263" y="778" type="line"/>
      <point x="263" y="914" type="line"/>
      <point x="114" y="914" type="line"/>
    </contour>
  </outline>
</glyph>
<glyph name="o" format="2">
  <advance width="994"/>
  <unicode hex="006F"/>
  <anchor x="496" y="915" name="top"/>
  <outline>
    <contour>
      <point x="54" y="443" type="line" smooth="yes"/>
      <point x="54" y="233"/>
      <point x="295" y="-21"/>
      <point x="497" y="-21" type="qcurve" smooth="yes"/>
      <point x="699" y="-21"/>
      <point x="941" y="233"/>
      <point x="941" y="443" type="qcurve" smooth="yes"/>
      <point x="941" y="474" type="line" smooth="yes"/>
      <point x="941" y="682"/>
      <point x="699" y="937"/>
      <point x="497" y="937" type="qcurve" smooth="yes"/>
      <point x="296" y="937"/>
      <point x="54" y="682"/>
      <point x="54" y="474" type="qcurve" smooth="yes"/>
    </contour>
    <contour>
      <point x="211" y="475" type="line" smooth="yes"/>
      <point x="211" y="626"/>
      <point x="357" y="813"/>
      <point x="496" y="813" type="qcurve" smooth="yes"/>
      <point x="637" y="813"/>
      <point x="783" y="626"/>
      <point x="783" y="475" type="qcurve" smooth="yes"/>
      <point x="783" y="442" type="line" smooth="yes"/>
      <point x="783" y="291"/>
      <point x="637" y="101"/>
      <point x="496" y="101" type="qcurve" smooth="yes"/>
      <point x="357" y="101"/>
      <point x="211" y="290"/>
      <point x="211" y="441" type="qcurve" smooth="yes"/>
    </contour>
  </outline>
</glyph>
<glyph name="p" format="2">
  <advance width="1004"/>
  <unicode hex="0070"/>
  <outline>
    <contour>
      <point x="114" y="-439" type="line"/>
      <point x="268" y="-439" type="line"/>
      <point x="268" y="115" type="line"/>
      <point x="314" y="56"/>
      <point x="465" y="-21"/>
      <point x="570" y="-21" type="qcurve" smooth="yes"/>
      <point x="748" y="-21"/>
      <point x="950" y="232"/>
      <point x="950" y="448" type="qcurve" smooth="yes"/>
      <point x="950" y="478" type="line" smooth="yes"/>
      <point x="950" y="691"/>
      <point x="750" y="936"/>
      <point x="571" y="936" type="qcurve" smooth="yes"/>
      <point x="466" y="936"/>
      <point x="301" y="848"/>
      <point x="264" y="786" type="qcurve"/>
      <point x="262" y="786" type="line"/>
      <point x="262" y="914" type="line"/>
      <point x="114" y="914" type="line"/>
    </contour>
    <contour>
      <point x="268" y="263" type="qcurve"/>
      <point x="268" y="653" type="line"/>
      <point x="297" y="716"/>
      <point x="430" y="813"/>
      <point x="524" y="813" type="qcurve" smooth="yes"/>
      <point x="663" y="813"/>
      <point x="794" y="629"/>
      <point x="794" y="480" type="qcurve" smooth="yes"/>
      <point x="794" y="446" type="line" smooth="yes"/>
      <point x="794" y="296"/>
      <point x="663" y="101"/>
      <point x="524" y="101" type="qcurve" smooth="yes"/>
      <point x="428" y="101"/>
      <point x="297" y="200"/>
    </contour>
  </outline>
</glyph>
<glyph name="q" format="2">
  <advance width="1004"/>
  <unicode hex="0071"/>
  <outline>
    <contour>
      <point x="54" y="443" type="line" smooth="yes"/>
      <point x="54" y="240"/>
      <point x="254" y="-21"/>
      <point x="431" y="-21" type="qcurve" smooth="yes"/>
      <point x="539" y="-21"/>
      <point x="692" y="59"/>
      <point x="737" y="121" type="qcurve"/>
      <point x="737" y="121" type="line"/>
      <point x="737" y="-439" type="line"/>
      <point x="891" y="-439" type="line"/>
      <point x="891" y="914" type="line"/>
      <point x="743" y="914" type="line"/>
      <point x="743" y="793" type="line"/>
      <point x="741" y="793" type="line"/>
      <point x="701" y="853"/>
      <point x="557" y="935"/>
      <point x="439" y="935" type="qcurve" smooth="yes"/>
      <point x="263" y="935"/>
      <point x="54" y="675"/>
      <point x="54" y="474" type="qcurve" smooth="yes"/>
    </contour>
    <contour>
      <point x="209" y="444" type="qcurve" smooth="yes"/>
      <point x="209" y="472" type="line" smooth="yes"/>
      <point x="209" y="621"/>
      <point x="340" y="813"/>
      <point x="481" y="813" type="qcurve" smooth="yes"/>
      <point x="575" y="813"/>
      <point x="707" y="724"/>
      <point x="736" y="661" type="qcurve"/>
      <point x="736" y="263" type="line"/>
      <point x="708" y="199"/>
      <point x="576" y="101"/>
      <point x="481" y="101" type="qcurve" smooth="yes"/>
      <point x="340" y="101"/>
      <point x="209" y="293"/>
    </contour>
  </outline>
</glyph>
<glyph name="r" format="2">
  <advance width="614"/>
  <unicode hex="0072"/>
  <outline>
    <contour>
      <point x="114" y="0" type="line"/>
      <point x="270" y="0" type="line"/>
      <point x="270" y="628" type="line"/>
      <point x="309" y="707"/>
      <point x="447" y="807"/>
      <point x="522" y="807" type="qcurve" smooth="yes"/>
      <point x="554" y="807"/>
      <point x="605" y="800"/>
      <point x="623" y="795" type="qcurve"/>
      <point x="623" y="922" type="line"/>
      <point x="612" y="927"/>
      <point x="560" y="934"/>
      <point x="536" y="934" type="qcurve" smooth="yes"/>
      <point x="442" y="934"/>
      <point x="307" y="845"/>
      <point x="266" y="779" type="qcurve"/>
      <point x="265" y="779" type="line"/>
      <point x="265" y="914" type="line"/>
      <point x="114" y="914" type="line"/>
    </contour>
  </outline>
</glyph>
<glyph name="s" format="2">
  <advance width="905"/>
  <unicode hex="0073"/>
  <outline>
    <contour>
      <point x="82" y="289" type="line"/>
      <point x="83" y="265" type="line" smooth="yes"/>
      <point x="83" y="129"/>
      <point x="271" y="-21"/>
      <point x="458" y="-21" type="qcurve" smooth="yes"/>
      <point x="645" y="-21"/>
      <point x="832" y="132"/>
      <point x="832" y="256" type="qcurve" smooth="yes"/>
      <point x="832" y="370"/>
      <point x="674" y="489"/>
      <point x="504" y="528" type="qcurve" smooth="yes"/>
      <point x="353" y="563"/>
      <point x="253" y="630"/>
      <point x="253" y="696" type="qcurve" smooth="yes"/>
      <point x="254" y="763"/>
      <point x="355" y="826"/>
      <point x="454" y="826" type="qcurve" smooth="yes"/>
      <point x="553" y="826"/>
      <point x="665" y="750"/>
      <point x="665" y="663" type="qcurve" smooth="yes"/>
      <point x="665" y="641" type="line"/>
      <point x="809" y="641" type="line"/>
      <point x="809" y="664" type="line" smooth="yes"/>
      <point x="809" y="795"/>
      <point x="615" y="936"/>
      <point x="457" y="936" type="qcurve" smooth="yes"/>
      <point x="298" y="936"/>
      <point x="107" y="802"/>
      <point x="107" y="687" type="qcurve" smooth="yes"/>
      <point x="107" y="575"/>
      <point x="254" y="455"/>
      <point x="420" y="417" type="qcurve" smooth="yes"/>
      <point x="583" y="378"/>
      <point x="681" y="315"/>
      <point x="681" y="244" type="qcurve" smooth="yes"/>
      <point x="681" y="167"/>
      <point x="563" y="88"/>
      <point x="455" y="88" type="qcurve" smooth="yes"/>
      <point x="348" y="88"/>
      <point x="226" y="172"/>
      <point x="226" y="265" type="qcurve" smooth="yes"/>
      <point x="226" y="288" type="line"/>
    </contour>
  </outline>
</glyph>
<glyph name="t" format="2">
  <advance width="576"/>
  <unicode hex="0074"/>
  <outline>
    <contour>
      <point x="3" y="790" type="line"/>
      <point x="557" y="790" type="line"/>
      <point x="557" y="914" type="line"/>
      <point x="3" y="914" type="line"/>
    </contour>
    <contour>
      <point x="170" y="262" type="line" smooth="yes"/>
      <point x="170" y="104"/>
      <point x="297" y="-20"/>
      <point x="409" y="-20" type="qcurve" smooth="yes"/>
      <point x="458" y="-20"/>
      <point x="527" y="-8"/>
      <point x="548" y="0" type="qcurve"/>
      <point x="546" y="120" type="line"/>
      <point x="525" y="110"/>
      <point x="478" y="102"/>
      <point x="451" y="102" type="qcurve" smooth="yes"/>
      <point x="385" y="102"/>
      <point x="323" y="167"/>
      <point x="323" y="281" type="qcurve" smooth="yes"/>
      <point x="323" y="1262" type="line"/>
      <point x="172" y="1262" type="line"/>
      <point x="172" y="883" type="line"/>
      <point x="170" y="872" type="line"/>
    </contour>
  </outline>
</glyph>
<glyph name="u" format="2">
  <advance width="974"/>
  <unicode hex="0075"/>
  <anchor x="488" y="915" name="top"/>
  <outline>
    <contour>
      <point x="103" y="312" type="line" smooth="yes"/>
      <point x="103" y="134"/>
      <point x="264" y="-22"/>
      <point x="402" y="-22" type="qcurve" smooth="yes"/>
      <point x="505" y="-22"/>
      <point x="663" y="65"/>
      <point x="709" y="139" type="qcurve"/>
      <point x="709" y="139" type="line"/>
      <point x="712" y="0" type="line"/>
      <point x="861" y="0" type="line"/>
      <point x="861" y="914" type="line"/>
      <point x="706" y="914" type="line"/>
      <point x="706" y="274" type="line"/>
      <point x="668" y="199"/>
      <point x="541" y="103"/>
      <point x="456" y="103" type="qcurve" smooth="yes"/>
      <point x="361" y="103"/>
      <point x="258" y="202"/>
      <point x="258" y="322" type="qcurve" smooth="yes"/>
      <point x="258" y="914" type="line"/>
      <point x="103" y="914" type="line"/>
    </contour>
  </outline>
</glyph>
<glyph name="v" format="2">
  <advance width="882"/>
  <unicode hex="0076"/>
  <outline>
    <contour>
      <point x="-3" y="914" type="line"/>
      <point x="361" y="0" type="line"/>
      <point x="522" y="0" type="line"/>
      <point x="885" y="914" type="line"/>
      <point x="735" y="914" type="line"/>
      <point x="492" y="270" type="line" smooth="yes"/>
      <point x="478" y="234"/>
      <point x="463" y="194"/>
      <point x="450" y="158" type="qcurve"/>
      <point x="445" y="158" type="line"/>
      <point x="431" y="197"/>
      <point x="417" y="235"/>
      <point x="403" y="270" type="qcurve" smooth="yes"/>
      <point x="161" y="914" type="line"/>
    </contour>
  </outline>
</glyph>
<glyph name="w" format="2">
  <advance width="1395"/>
  <unicode hex="0077"/>
  <outline>
    <contour>
      <point x="8" y="914" type="line"/>
      <point x="273" y="0" type="line"/>
      <point x="460" y="0" type="line"/>
      <point x="671" y="658" type="line" smooth="yes"/>
      <point x="678" y="683"/>
      <point x="690" y="726"/>
      <point x="697" y="752" type="qcurve"/>
      <point x="701" y="752" type="line"/>
      <point x="707" y="726"/>
      <point x="719" y="682"/>
      <point x="727" y="658" type="qcurve" smooth="yes"/>
      <point x="940" y="0" type="line"/>
      <point x="1123" y="0" type="line"/>
      <point x="1387" y="914" type="line"/>
      <point x="1242" y="914" type="line"/>
      <point x="1070" y="278" type="line" smooth="yes"/>
      <point x="1062" y="247"/>
      <point x="1045" y="195"/>
      <point x="1034" y="159" type="qcurve"/>
      <point x="1028" y="159" type="line"/>
      <point x="1017" y="195"/>
      <point x="1000" y="242"/>
      <point x="989" y="278" type="qcurve" smooth="yes"/>
      <point x="784" y="914" type="line"/>
      <point x="626" y="914" type="line"/>
      <point x="421" y="279" type="line" smooth="yes"/>
      <point x="409" y="243"/>
      <point x="395" y="196"/>
      <point x="384" y="159" type="qcurve"/>
      <point x="379" y="159" type="line"/>
      <point x="370" y="196"/>
      <point x="359" y="243"/>
      <point x="349" y="279" type="qcurve" smooth="yes"/>
      <point x="165" y="914" type="line"/>
    </contour>
  </outline>
</glyph>
<glyph name="x" format="2">
  <advance width="803"/>
  <unicode hex="0078"/>
  <outline>
    <contour>
      <point x="-2" y="0" type="line"/>
      <point x="151" y="0" type="line"/>
      <point x="430" y="430" type="line"/>
      <point x="470" y="440" type="line"/>
      <point x="788" y="914" type="line"/>
      <point x="635" y="914" type="line"/>
      <point x="365" y="512" type="line"/>
      <point x="327" y="497" type="line"/>
    </contour>
    <contour>
      <point x="17" y="914" type="line"/>
      <point x="335" y="438" type="line"/>
      <point x="355" y="422" type="line"/>
      <point x="628" y="0" type="line"/>
      <point x="806" y="0" type="line"/>
      <point x="477" y="498" type="line"/>
      <point x="455" y="515" type="line"/>
      <point x="195" y="914" type="line"/>
    </contour>
  </outline>
</glyph>
<glyph name="y" format="2">
  <advance width="882"/>
  <unicode hex="0079"/>
  <anchor x="458" y="915" name="top"/>
  <outline>
    <contour>
      <point x="14" y="-414" type="line"/>
      <point x="44" y="-424"/>
      <point x="111" y="-436"/>
      <point x="159" y="-436" type="qcurve" smooth="yes"/>
      <point x="273" y="-436"/>
      <point x="407" y="-285"/>
      <point x="474" y="-116" type="qcurve" smooth="yes"/>
      <point x="887" y="914" type="line"/>
      <point x="738" y="914" type="line"/>
      <point x="493" y="264" type="line" smooth="yes"/>
      <point x="479" y="229"/>
      <point x="464" y="187"/>
      <point x="450" y="147" type="qcurve"/>
      <point x="449" y="147" type="line"/>
      <point x="434" y="186"/>
      <point x="416" y="228"/>
      <point x="404" y="263" type="qcurve" smooth="yes"/>
      <point x="162" y="914" type="line"/>
      <point x="-3" y="914" type="line"/>
      <point x="363" y="1" type="line"/>
      <point x="342" y="-79" type="line"/>
      <point x="287" y="-215"/>
      <point x="202" y="-317"/>
      <point x="138" y="-317" type="qcurve" smooth="yes"/>
      <point x="108" y="-317"/>
      <point x="51" y="-306"/>
      <point x="20" y="-295" type="qcurve"/>
    </contour>
  </outline>
</glyph>
<glyph name="z" format="2">
  <advance width="750"/>
  <unicode hex="007A"/>
  <outline>
    <contour>
      <point x="13" y="0" type="line"/>
      <point x="737" y="0" type="line"/>
      <point x="737" y="122" type="line"/>
      <point x="211" y="122" type="line"/>
      <point x="717" y="807" type="line"/>
      <point x="717" y="914" type="line"/>
      <point x="23" y="914" type="line"/>
      <point x="23" y="790" type="line"/>
      <point x="520" y="790" type="line"/>
      <point x="13" y="105" type="line"/>
    </contour>
  </outline>
</glyph>
<glyph name="braceleft" format="2">
  <advance width="657"/>
  <unicode hex="007B"/>
  <outline>
    <contour>
      <point x="614" y="-312" type="qcurve"/>
      <point x="614" y="-201" type="line"/>
      <point x="466" y="-201"/>
      <point x="336" y="-28"/>
      <point x="371" y="127" type="qcurve" smooth="yes"/>
      <point x="418" y="334" type="line" smooth="yes"/>
      <point x="437" y="418"/>
      <point x="365" y="546"/>
      <point x="266" y="574" type="qcurve"/>
      <point x="365" y="602"/>
      <point x="438" y="730"/>
      <point x="418" y="814" type="qcurve" smooth="yes"/>
      <point x="371" y="1021" type="line" smooth="yes"/>
      <point x="336" y="1176"/>
      <point x="466" y="1349"/>
      <point x="614" y="1349" type="qcurve"/>
      <point x="614" y="1460" type="line"/>
      <point x="391" y="1462"/>
      <point x="176" y="1223"/>
      <point x="222" y="1032" type="qcurve" smooth="yes"/>
      <point x="269" y="823" type="line" smooth="yes"/>
      <point x="295" y="706"/>
      <point x="176" y="631"/>
      <point x="71" y="631" type="qcurve"/>
      <point x="71" y="517" type="line"/>
      <point x="176" y="517"/>
      <point x="295" y="442"/>
      <point x="269" y="325" type="qcurve" smooth="yes"/>
      <point x="222" y="116" type="line" smooth="yes"/>
      <point x="175" y="-76"/>
      <point x="391" y="-315"/>
    </contour>
  </outline>
</glyph>
<glyph name="bar" format="2">
  <advance width="541"/>
  <unicode hex="007C"/>
  <outline>
    <contour>
      <point x="198" y="-416" type="line"/>
      <point x="343" y="-416" type="line"/>
      <point x="343" y="1456" type="line"/>
      <point x="198" y="1456" type="line"/>
    </contour>
  </outline>
</glyph>
<glyph name="braceright" format="2">
  <advance width="657"/>
  <unicode hex="007D"/>
  <outline>
    <contour>
      <point x="42" y="-312" type="line"/>
      <point x="267" y="-314"/>
      <point x="480" y="-75"/>
      <point x="436" y="115" type="qcurve" smooth="yes"/>
      <point x="388" y="324" type="line" smooth="yes"/>
      <point x="362" y="443"/>
      <point x="481" y="517"/>
      <point x="585" y="517" type="qcurve"/>
      <point x="585" y="631" type="line"/>
      <point x="481" y="631"/>
      <point x="362" y="706"/>
      <point x="388" y="823" type="qcurve" smooth="yes"/>
      <point x="436" y="1032" type="line" smooth="yes"/>
      <point x="480" y="1224"/>
      <point x="267" y="1463"/>
      <point x="42" y="1460" type="qcurve"/>
      <point x="42" y="1349" type="line"/>
      <point x="189" y="1349"/>
      <point x="321" y="1175"/>
      <point x="286" y="1021" type="qcurve" smooth="yes"/>
      <point x="239" y="814" type="line" smooth="yes"/>
      <point x="220" y="730"/>
      <point x="293" y="602"/>
      <point x="392" y="574" type="qcurve"/>
      <point x="293" y="546"/>
      <point x="220" y="418"/>
      <point x="239" y="334" type="qcurve" smooth="yes"/>
      <point x="286" y="127" type="line" smooth="yes"/>
      <point x="321" y="-28"/>
      <point x="189" y="-201"/>
      <point x="42" y="-201" type="qcurve"/>
    </contour>
  </outline>
</glyph>
<glyph name="asciitilde" format="2">
  <advance width="1260"/>
  <unicode hex="007E"/>
  <outline>
    <contour>
      <point x="179" y="415" type="qcurve"/>
      <point x="315" y="415" type="line"/>
      <point x="315" y="524"/>
      <point x="374" y="680"/>
      <point x="450" y="680" type="qcurve" smooth="yes"/>
      <point x="519" y="680"/>
      <point x="703" y="401"/>
      <point x="838" y="401" type="qcurve" smooth="yes"/>
      <point x="961" y="401"/>
      <point x="1082" y="631"/>
      <point x="1080" y="809" type="qcurve"/>
      <point x="944" y="809" type="line"/>
      <point x="944" y="696"/>
      <point x="886" y="543"/>
      <point x="812" y="543" type="qcurve" smooth="yes"/>
      <point x="745" y="543"/>
      <point x="559" y="823"/>
      <point x="424" y="823" type="qcurve" smooth="yes"/>
      <point x="299" y="823"/>
      <point x="177" y="588"/>
    </contour>
  </outline>
</glyph>
